<svg width="437" height="437" viewBox="0 0 437 437" fill="none" xmlns="http://www.w3.org/2000/svg">
<rect width="437" height="437" fill="black"/>
<path d="M144.31 256.665C139.94 256.665 136.013 255.905 132.53 254.385C129.11 252.802 126.418 250.648 124.455 247.925C122.492 245.138 121.478 241.94 121.415 238.33H130.63C130.947 241.433 132.213 244.062 134.43 246.215C136.71 248.305 140.003 249.35 144.31 249.35C148.427 249.35 151.657 248.337 154 246.31C156.407 244.22 157.61 241.56 157.61 238.33C157.61 235.797 156.913 233.738 155.52 232.155C154.127 230.572 152.385 229.368 150.295 228.545C148.205 227.722 145.387 226.835 141.84 225.885C137.47 224.745 133.955 223.605 131.295 222.465C128.698 221.325 126.45 219.552 124.55 217.145C122.713 214.675 121.795 211.382 121.795 207.265C121.795 203.655 122.713 200.457 124.55 197.67C126.387 194.883 128.952 192.73 132.245 191.21C135.602 189.69 139.433 188.93 143.74 188.93C149.947 188.93 155.013 190.482 158.94 193.585C162.93 196.688 165.178 200.805 165.685 205.935H156.185C155.868 203.402 154.538 201.185 152.195 199.285C149.852 197.322 146.748 196.34 142.885 196.34C139.275 196.34 136.33 197.29 134.05 199.19C131.77 201.027 130.63 203.623 130.63 206.98C130.63 209.387 131.295 211.35 132.625 212.87C134.018 214.39 135.697 215.562 137.66 216.385C139.687 217.145 142.505 218.032 146.115 219.045C150.485 220.248 154 221.452 156.66 222.655C159.32 223.795 161.6 225.6 163.5 228.07C165.4 230.477 166.35 233.77 166.35 237.95C166.35 241.18 165.495 244.22 163.785 247.07C162.075 249.92 159.542 252.232 156.185 254.005C152.828 255.778 148.87 256.665 144.31 256.665ZM232.082 256L204.817 225.79V256H196.172V189.785H204.817V220.47L232.177 189.785H243.102L213.082 222.94L243.387 256H232.082ZM278.787 189.785V256H270.142V189.785H278.787ZM319.266 248.97H342.446V256H310.621V189.785H319.266V248.97Z" fill="white"/>
<path d="M276 146V126H91V312H276V283" stroke="#FF914D" stroke-width="10"/>
<circle cx="276" cy="169" r="8" fill="#FF914D"/>
</svg>
