<svg width="32" height="32" viewBox="0 0 32 32" fill="none" xmlns="http://www.w3.org/2000/svg">
<circle cx="16" cy="16" r="16" fill="#FFC942"/>
<g clip-path="url(#clip0_45_68)">
<path d="M9 10.828C9.885 10.458 11.154 10.059 12.388 9.935C13.718 9.801 14.846 9.998 15.5 10.687V20.433C14.565 19.903 13.38 19.83 12.287 19.94C11.107 20.06 9.917 20.401 9 20.751V10.828ZM16.5 10.687C17.154 9.998 18.282 9.801 19.612 9.935C20.846 10.059 22.115 10.458 23 10.828V20.751C22.082 20.401 20.893 20.059 19.713 19.941C18.619 19.83 17.435 19.902 16.5 20.433V10.687ZM16 9.783C15.015 8.936 13.587 8.81 12.287 8.94C10.773 9.093 9.245 9.612 8.293 10.045C8.20565 10.0847 8.13158 10.1488 8.07962 10.2294C8.02767 10.3101 8.00003 10.404 8 10.5V21.5C8.00002 21.5837 8.02104 21.666 8.06112 21.7394C8.1012 21.8128 8.15906 21.875 8.22941 21.9203C8.29976 21.9656 8.38034 21.9925 8.46378 21.9986C8.54722 22.0046 8.63085 21.9896 8.707 21.955C9.589 21.555 11.01 21.074 12.387 20.935C13.796 20.793 14.977 21.022 15.61 21.812C15.6569 21.8704 15.7162 21.9175 15.7837 21.9499C15.8512 21.9823 15.9251 21.9991 16 21.9991C16.0749 21.9991 16.1488 21.9823 16.2163 21.9499C16.2838 21.9175 16.3431 21.8704 16.39 21.812C17.023 21.022 18.204 20.793 19.612 20.935C20.99 21.074 22.412 21.555 23.293 21.955C23.3692 21.9896 23.4528 22.0046 23.5362 21.9986C23.6197 21.9925 23.7002 21.9656 23.7706 21.9203C23.8409 21.875 23.8988 21.8128 23.9389 21.7394C23.979 21.666 24 21.5837 24 21.5V10.5C24 10.404 23.9723 10.3101 23.9204 10.2294C23.8684 10.1488 23.7944 10.0847 23.707 10.045C22.755 9.612 21.227 9.093 19.713 8.94C18.413 8.809 16.985 8.936 16 9.783Z" fill="#0C1524"/>
</g>
<defs>
<clipPath id="clip0_45_68">
<rect width="16" height="16" fill="white" transform="translate(8 8)"/>
</clipPath>
</defs>
</svg>
