<svg width="32" height="32" viewBox="0 0 32 32" fill="none" xmlns="http://www.w3.org/2000/svg">
<circle cx="16" cy="16" r="16" fill="#FFC942"/>
<path d="M16 9.5C14.7144 9.5 13.4577 9.88122 12.3888 10.5954C11.3199 11.3097 10.4868 12.3248 9.99479 13.5126C9.50282 14.7003 9.37409 16.0072 9.6249 17.2681C9.8757 18.529 10.4948 19.6872 11.4038 20.5962C12.3129 21.5052 13.471 22.1243 14.7319 22.3751C15.9928 22.6259 17.2997 22.4972 18.4874 22.0052C19.6752 21.5132 20.6903 20.6801 21.4046 19.6112C22.1188 18.5423 22.5 17.2856 22.5 16C22.4982 14.2767 21.8128 12.6244 20.5942 11.4058C19.3756 10.1872 17.7234 9.50182 16 9.5ZM14.3519 18.5H17.6481C17.3125 19.6462 16.75 20.6794 16 21.4931C15.25 20.6794 14.6875 19.6462 14.3519 18.5ZM14.125 17.5C13.9592 16.5069 13.9592 15.4931 14.125 14.5H17.875C18.0408 15.4931 18.0408 16.5069 17.875 17.5H14.125ZM10.5 16C10.4996 15.4928 10.5696 14.9879 10.7081 14.5H13.1119C12.9627 15.4944 12.9627 16.5056 13.1119 17.5H10.7081C10.5696 17.0121 10.4996 16.5072 10.5 16ZM17.6481 13.5H14.3519C14.6875 12.3537 15.25 11.3206 16 10.5069C16.75 11.3206 17.3125 12.3537 17.6481 13.5ZM18.8881 14.5H21.2919C21.5694 15.4807 21.5694 16.5193 21.2919 17.5H18.8881C19.0373 16.5056 19.0373 15.4944 18.8881 14.5ZM20.8981 13.5H18.6838C18.4286 12.4959 18.0001 11.5442 17.4175 10.6875C18.1618 10.8875 18.856 11.2411 19.4554 11.7255C20.0549 12.2098 20.5463 12.8143 20.8981 13.5ZM14.5825 10.6875C13.9999 11.5442 13.5714 12.4959 13.3163 13.5H11.1019C11.4537 12.8143 11.9451 12.2098 12.5446 11.7255C13.144 11.2411 13.8382 10.8875 14.5825 10.6875ZM11.1019 18.5H13.3163C13.5714 19.5041 13.9999 20.4558 14.5825 21.3125C13.8382 21.1125 13.144 20.7589 12.5446 20.2745C11.9451 19.7902 11.4537 19.1857 11.1019 18.5ZM17.4175 21.3125C18.0001 20.4558 18.4286 19.5041 18.6838 18.5H20.8981C20.5463 19.1857 20.0549 19.7902 19.4554 20.2745C18.856 20.7589 18.1618 21.1125 17.4175 21.3125Z" fill="#0C1524"/>
</svg>
