<svg width="32" height="32" viewBox="0 0 32 32" fill="none" xmlns="http://www.w3.org/2000/svg">
<circle cx="16" cy="16" r="16" fill="#FFC942"/>
<g clip-path="url(#clip0_45_70)">
<path fill-rule="evenodd" clip-rule="evenodd" d="M18.8283 10.3433C19.1953 9.97643 19.6906 9.76653 20.2094 9.75799C20.7283 9.74945 21.2302 9.94294 21.6091 10.2976C21.988 10.6522 22.2142 11.1403 22.2399 11.6586C22.2656 12.1769 22.0889 12.6849 21.747 13.0753L21.657 13.1713L21.1856 13.6427L21.657 14.1147C21.8927 14.3506 22.0315 14.6663 22.046 14.9995C22.0604 15.3327 21.9495 15.6593 21.735 15.9147L21.657 16L18.829 18.8287C18.7093 18.9495 18.5479 19.02 18.3779 19.0258C18.2079 19.0316 18.0422 18.9721 17.9146 18.8597C17.787 18.7473 17.7072 18.5903 17.6915 18.4209C17.6758 18.2516 17.7255 18.0826 17.8303 17.9487L17.8856 17.8853L20.7143 15.0573L20.243 14.586L13.6576 21.1713C13.5759 21.253 13.4761 21.3142 13.3663 21.35L13.283 21.372L10.9556 21.8373C10.8534 21.8579 10.7477 21.8545 10.647 21.8273C10.5464 21.8 10.4534 21.7498 10.3754 21.6805C10.2975 21.6112 10.2367 21.5248 10.1978 21.4279C10.159 21.3311 10.1432 21.2266 10.1516 21.1227L10.163 21.0447L10.6283 18.718C10.6509 18.6046 10.7 18.4982 10.7716 18.4073L10.829 18.3427L18.829 10.3427L18.8283 10.3433ZM12.2296 18.828L11.901 19.1573L11.665 20.3353L12.8436 20.1L13.1723 19.7713L12.2296 18.828ZM18.3583 12.7L13.1723 17.8853L14.1156 18.8287L19.301 13.6427L18.3583 12.7ZM20.7136 11.2867C20.5988 11.1719 20.4461 11.1029 20.2841 11.0928C20.1221 11.0826 19.9619 11.1318 19.8336 11.2313L19.771 11.2867L19.2996 11.758L20.2423 12.7007L20.7136 12.2293L20.769 12.1667C20.8685 12.0384 20.9177 11.8782 20.9076 11.7162C20.8974 11.5542 20.8284 11.4015 20.7136 11.2867Z" fill="#0C1524"/>
</g>
<defs>
<clipPath id="clip0_45_70">
<rect width="16" height="16" fill="white" transform="translate(8 8)"/>
</clipPath>
</defs>
</svg>
