<svg width="50" height="50" viewBox="0 0 50 50" fill="none" xmlns="http://www.w3.org/2000/svg">
<circle opacity="0.05" cx="25" cy="25" r="24" fill="#D9D9D9" stroke="black" stroke-width="2"/>
<path d="M34.1673 17.4996C33.3693 18.0625 32.4857 18.493 31.5507 18.7746C31.0488 18.1975 30.3818 17.7885 29.6398 17.6029C28.8979 17.4172 28.1169 17.4639 27.4024 17.7366C26.6879 18.0093 26.0744 18.4949 25.6448 19.1277C25.2153 19.7605 24.9904 20.5099 25.0007 21.2746V22.1079C23.5362 22.1459 22.085 21.8211 20.7765 21.1625C19.4679 20.5038 18.3426 19.5318 17.5007 18.3329C17.5007 18.3329 14.1673 25.8329 21.6673 29.1663C19.9511 30.3312 17.9066 30.9154 15.834 30.8329C23.334 34.9996 32.5006 30.8329 32.5006 21.2496C32.4999 21.0175 32.4776 20.7859 32.434 20.5579C33.2845 19.7192 33.8847 18.6602 34.1673 17.4996V17.4996Z" fill="white"/>
</svg>
