<svg width="471" height="101" viewBox="0 0 471 101" fill="none" xmlns="http://www.w3.org/2000/svg">
<path d="M35.168 100.994C28.5413 100.994 22.5773 99.858 17.276 97.586C11.9747 95.2193 7.80933 91.906 4.78 87.646C1.75067 83.386 0.236 78.416 0.236 72.736H17.56C17.9387 76.996 19.5953 80.4987 22.53 83.244C25.5593 85.9893 29.772 87.362 35.168 87.362C40.7533 87.362 45.108 86.0367 48.232 83.386C51.356 80.6407 52.918 77.138 52.918 72.878C52.918 69.5647 51.924 66.8667 49.936 64.784C48.0427 62.7013 45.6287 61.092 42.694 59.956C39.854 58.82 35.878 57.5893 30.766 56.264C24.3287 54.56 19.0747 52.856 15.004 51.152C11.028 49.3533 7.62 46.608 4.78 42.916C1.94 39.224 0.52 34.3013 0.52 28.148C0.52 22.468 1.94 17.498 4.78 13.238C7.62 8.978 11.596 5.712 16.708 3.44C21.82 1.16799 27.7367 0.0319921 34.458 0.0319921C44.0193 0.0319921 51.8293 2.44599 57.888 7.27399C64.0413 12.0073 67.4493 18.5393 68.112 26.87H50.22C49.936 23.2727 48.232 20.196 45.108 17.64C41.984 15.084 37.866 13.806 32.754 13.806C28.1153 13.806 24.3287 14.9893 21.394 17.356C18.4593 19.7227 16.992 23.1307 16.992 27.58C16.992 30.6093 17.8913 33.118 19.69 35.106C21.5833 36.9993 23.95 38.514 26.79 39.65C29.63 40.786 33.5113 42.0167 38.434 43.342C44.966 45.1407 50.2673 46.9393 54.338 48.738C58.5033 50.5367 62.006 53.3293 64.846 57.116C67.7807 60.808 69.248 65.778 69.248 72.026C69.248 77.0433 67.8753 81.7767 65.13 86.226C62.4793 90.6753 58.5507 94.2727 53.344 97.018C48.232 99.6687 42.1733 100.994 35.168 100.994ZM128.995 100L98.8672 65.168V100H86.0992V22.16H98.8672V57.664L129.107 22.16H145.123L111.299 61.136L145.683 100H128.995ZM169.742 22.16V100H156.974V22.16H169.742ZM199.273 89.696H225.593V100H186.505V22.16H199.273V89.696ZM249.039 32.464V55.312H275.919V65.728H249.039V89.584H279.279V100H236.271V22.048H279.279V32.464H249.039ZM362.093 22.16L332.861 100H318.077L288.733 22.16H302.397L325.469 86.896L348.653 22.16H362.093ZM385.539 32.464V55.312H412.419V65.728H385.539V89.584H415.779V100H372.771V22.048H415.779V32.464H385.539ZM444.273 89.696H470.593V100H431.505V22.16H444.273V89.696Z" fill="black"/>
</svg>
