<svg width="581" height="138" viewBox="0 0 581 138" fill="none" xmlns="http://www.w3.org/2000/svg">
<path d="M49.2725 0.574219C57.3255 0.574219 64.731 1.70052 71.4888 3.95312C78.2466 6.20573 84.3286 7.66992 89.7349 8.3457C86.7502 18.8203 86.6375 30.1115 89.397 42.2192C86.5249 44.6408 83.2305 46.0487 79.5137 46.4429C79.0632 45.3729 78.2466 43.1484 77.064 39.7695C75.9377 36.3343 74.8395 33.5186 73.7695 31.3223C72.7559 29.126 71.3198 26.62 69.4614 23.8042C67.6593 20.9884 65.2378 18.764 62.1968 17.1309C59.2121 15.4414 55.7769 14.2869 51.8911 13.6675C46.2033 14.1743 41.8107 15.9201 38.7134 18.9048C35.616 21.8895 34.0674 25.7471 34.0674 30.4775C34.0674 35.3206 35.3063 39.319 37.7842 42.4727C40.262 45.57 43.472 47.9071 47.4141 49.4839C51.4124 51.0044 55.805 52.356 60.5918 53.5386C65.3786 54.6649 70.1372 56.0728 74.8677 57.7622C79.5981 59.3953 83.9344 61.5635 87.8765 64.2666C91.8748 66.9134 95.113 70.8836 97.5908 76.1772C100.069 81.4709 101.308 87.9189 101.308 95.5215C101.308 104.757 98.6326 112.698 93.2827 119.343C87.9328 125.988 81.6255 130.747 74.3608 133.619C67.0962 136.491 59.6626 137.927 52.0601 137.927C35.3345 137.927 18.7778 134.238 2.39014 126.861C2.72803 119.596 2.89697 115.147 2.89697 113.514C2.89697 104.391 2.02409 94.5923 0.27832 84.1177C5.34668 81.6961 11.0063 81.5835 17.2573 83.7798C19.341 96.5633 23.3675 106.362 29.3369 113.176C35.3626 119.99 41.9515 123.792 49.1035 124.58C55.805 124.13 60.9578 121.961 64.562 118.076C68.2225 114.134 70.0527 109.15 70.0527 103.124C70.0527 98.0557 68.8701 93.7757 66.5049 90.2842C64.1396 86.7363 61.0142 84.005 57.1284 82.0903C53.2427 80.1193 49.019 78.3454 44.4575 76.7686C39.9523 75.1917 35.3908 73.5304 30.7729 71.7847C26.1551 69.9826 21.9033 67.8426 18.0176 65.3647C14.1882 62.8869 11.0908 59.4235 8.72559 54.9746C6.36035 50.5257 5.17773 45.1195 5.17773 38.7559C5.17773 33.0117 6.07878 27.8589 7.88086 23.2974C9.73926 18.7358 12.1326 15.0754 15.061 12.3159C18.0457 9.55648 21.5091 7.24756 25.4512 5.38916C29.4495 3.53076 33.3916 2.26367 37.2773 1.58789C41.2194 0.912109 45.2178 0.574219 49.2725 0.574219ZM49.2725 4.0376C44.542 4.0376 39.9523 4.60075 35.5034 5.72705C31.0545 6.79704 26.7183 8.57096 22.4946 11.0488C18.3273 13.5267 14.9766 17.159 12.4424 21.9458C9.9082 26.7326 8.64111 32.3359 8.64111 38.7559C8.64111 44.4437 9.82373 49.3431 12.189 53.4541C14.5542 57.5088 17.6515 60.6624 21.481 62.915C25.3667 65.1676 29.6185 67.1668 34.2363 68.9126C38.8542 70.6021 43.4157 72.3197 47.9209 74.0654C52.4824 75.8112 56.7061 77.7822 60.5918 79.9785C64.4775 82.1748 67.603 85.244 69.9683 89.186C72.3335 93.0718 73.5161 97.7178 73.5161 103.124C73.5161 110.614 71.1227 116.668 66.3359 121.286C61.5492 125.903 54.7632 128.212 45.978 128.212C37.5308 128.212 29.6748 124.693 22.4102 117.653C15.1455 110.614 10.3587 100.083 8.0498 86.0605C6.9235 85.3285 5.6001 85.3285 4.07959 86.0605C5.6001 94.902 6.36035 104.053 6.36035 113.514C6.36035 116.161 6.24772 119.906 6.02246 124.749C19.9886 131.225 33.3071 134.463 45.978 134.463C56.4526 134.463 66.1388 131.366 75.0366 125.171C83.9344 118.92 88.3833 110.192 88.3833 98.9849C88.3833 92.6213 87.1444 87.2432 84.6665 82.8506C82.1886 78.4017 78.9505 74.9383 74.9521 72.4604C70.9538 69.9826 66.5612 67.8426 61.7744 66.0405C56.9876 64.2384 52.229 62.549 47.4985 60.9722C42.7681 59.339 38.4036 57.5369 34.4053 55.5659C30.4632 53.5949 27.2533 50.8073 24.7754 47.2031C22.2975 43.5426 21.0586 39.1219 21.0586 33.9409C21.0586 26.6763 23.5083 20.8758 28.4077 16.5396C33.3071 12.2033 40.262 10.0352 49.2725 10.0352C64.9281 10.0352 75.7124 20.8758 81.6255 42.5571C83.3713 42.8387 84.582 42.4445 85.2578 41.3745C83.3994 27.6336 79.3166 17.9756 73.0093 12.4004C66.7583 6.8252 58.846 4.0376 49.2725 4.0376Z" fill="black"/>
<path d="M154.446 69.499C153.892 70.7471 153.892 71.8333 154.446 72.7578C155.879 72.9427 157.197 73.3125 158.398 73.8672C159.646 74.3757 160.525 75.1383 161.033 76.1553C161.542 77.126 161.103 78.2354 159.716 79.4834L145.641 92.7959H140.094C140.001 79.0674 139.955 57.2959 139.955 27.4814C139.493 26.6494 138.684 26.0254 137.528 25.6094C131.381 28.5677 124.239 30.4629 116.104 31.2949C115.826 32.4505 115.826 33.5368 116.104 34.5537C122.344 34.8773 126.804 35.8249 129.485 37.3965C129.485 43.1745 129.555 51.8646 129.693 63.4668C129.832 75.069 129.901 85.5156 129.901 94.8066C129.901 104.051 129.693 112.95 129.277 121.501C129.185 124.922 125.256 127.14 117.49 128.157C116.936 129.313 116.936 130.399 117.49 131.416C123.592 131.139 129.462 131 135.102 131C140.602 131 146.38 131.139 152.436 131.416C153.036 130.399 153.036 129.313 152.436 128.157C144.485 127.14 140.51 124.922 140.51 121.501C140.232 116.37 140.094 108.281 140.094 97.2334H145.502L164.361 121.501C167.135 125.014 165.632 127.094 159.854 127.741C159.3 128.851 159.3 129.937 159.854 131H175.732C180.956 131 186.826 131.139 193.344 131.416C193.898 130.399 193.898 129.313 193.344 128.157C187.473 127.51 183.359 126.378 181.002 124.76C179.661 123.882 178.483 122.795 177.466 121.501L153.892 91.8252L166.095 79.4834C169.608 75.8779 175.432 73.6361 183.567 72.7578C183.937 71.6484 183.937 70.5622 183.567 69.499C173.259 70.0999 163.552 70.0999 154.446 69.499ZM153.198 66.6562C165.679 67.1185 176.449 67.0723 185.509 66.5176C186.664 69.3835 186.734 72.3649 185.717 75.4619C177.073 76.3402 171.202 78.3278 168.105 81.4248L161.519 88.1504L186.688 119.768C188.213 121.663 189.553 123.003 190.709 123.789C191.911 124.529 193.737 125.13 196.187 125.592C197.25 128.643 197.157 131.439 195.909 133.981C186.433 133.427 174.068 133.427 158.814 133.981C157.428 131.069 157.243 128.273 158.26 125.592C161.033 125.037 161.888 123.674 160.825 121.501L149.87 107.564C149.87 113.527 150.032 118.173 150.355 121.501C150.54 123.674 151.719 125.037 153.892 125.592C154.816 128.042 154.724 130.838 153.614 133.981C140.995 133.704 128.307 133.704 115.549 133.981C113.654 131.162 113.561 128.365 115.271 125.592C122.621 124.667 126.365 123.257 126.504 121.362C126.689 116.786 126.781 106.594 126.781 90.7852C126.781 86.9023 126.758 81.1012 126.712 73.3818C126.666 65.6162 126.643 60.0231 126.643 56.6025V39.1299C123.592 38.1592 119.362 37.5352 113.954 37.2578C112.937 34.5306 112.937 31.5954 113.954 28.4521C120.425 27.8975 128.63 25.8174 138.568 22.2119C143.561 22.5817 147.282 24.1071 149.731 26.7881V84.8223L157.705 77.334C158.352 76.6868 158.306 76.2015 157.566 75.8779C157.197 75.7855 155.671 75.5081 152.99 75.0459C151.604 72.4111 151.673 69.6146 153.198 66.6562Z" fill="black"/>
<path d="M220.246 33.583C230.693 33.583 235.916 37.3734 235.916 44.9541C235.916 52.5348 230.693 56.3252 220.246 56.3252C218.674 56.3252 217.195 56.0247 215.809 55.4238C214.468 54.8229 213.289 54.014 212.272 52.9971C211.256 51.9339 210.447 50.709 209.846 49.3223C209.245 47.9355 208.944 46.4795 208.944 44.9541C208.944 43.4287 209.245 41.9727 209.846 40.5859C210.447 39.1992 211.256 37.9974 212.272 36.9805C213.289 35.9173 214.468 35.0853 215.809 34.4844C217.195 33.8835 218.674 33.583 220.246 33.583ZM213.867 38.9912C212.48 40.609 211.787 42.5967 211.787 44.9541C211.787 46.1559 211.972 47.2884 212.342 48.3516C212.758 49.3685 213.312 50.2699 214.006 51.0557C214.699 51.7952 215.485 52.3962 216.363 52.8584C217.288 53.2744 218.258 53.4824 219.275 53.4824C220.246 53.4824 221.194 53.2744 222.118 52.8584C223.043 52.3962 223.852 51.7952 224.545 51.0557C225.238 50.2699 225.793 49.3685 226.209 48.3516C226.625 47.2884 226.833 46.1559 226.833 44.9541C226.833 43.7523 226.625 42.6429 226.209 41.626C225.793 40.5628 225.238 39.6615 224.545 38.9219C223.852 38.1361 223.043 37.5352 222.118 37.1191C221.194 36.6569 220.246 36.4258 219.275 36.4258C218.305 36.4258 217.357 36.6338 216.433 37.0498C215.508 37.4658 214.653 38.113 213.867 38.9912ZM241.879 127.811C230.878 126.794 225.331 124.575 225.238 121.154C224.776 107.287 224.591 90.2536 224.684 70.0537C224.314 69.3141 223.505 68.7132 222.257 68.251C215.832 71.2555 209.152 73.1507 202.219 73.9365C201.941 75.0459 201.941 76.1322 202.219 77.1953C207.442 77.4727 211.417 78.4202 214.145 80.0381C214.561 97.2796 214.514 110.985 214.006 121.154C213.913 124.575 209.984 126.794 202.219 127.811C201.757 128.966 201.757 130.099 202.219 131.208C215.485 130.931 228.705 130.931 241.879 131.208C242.341 130.099 242.341 128.966 241.879 127.811ZM244.444 125.245C245.184 128.111 245.184 130.908 244.444 133.635C229.56 133.173 214.653 133.173 199.723 133.635C198.937 130.908 198.937 128.111 199.723 125.245C207.257 124.506 211.071 123.096 211.163 121.016C211.764 108.073 211.81 94.9684 211.302 81.7021C208.205 80.7777 204.345 80.1768 199.723 79.8994C198.66 77.126 198.66 74.1908 199.723 71.0938C206.702 70.724 214.561 68.6439 223.297 64.8535C228.289 65.2233 232.01 66.7256 234.46 69.3604C234.275 92.1025 234.46 109.321 235.015 121.016C235.153 123.096 238.297 124.506 244.444 125.245Z" fill="black"/>
<path d="M295.268 127.811C284.266 126.794 278.719 124.575 278.627 121.154C278.165 95.5462 277.98 64.3219 278.072 27.4814C277.702 26.7419 276.894 26.1178 275.646 25.6094C269.22 28.6602 262.541 30.5553 255.607 31.2949C255.33 32.4505 255.33 33.5368 255.607 34.5537C260.831 34.8773 264.806 35.8249 267.533 37.3965C267.903 72.1569 267.857 100.076 267.395 121.154C267.302 124.575 263.373 126.794 255.607 127.811C255.145 128.966 255.145 130.099 255.607 131.208C266.331 130.838 279.551 130.838 295.268 131.208C295.73 130.099 295.73 128.966 295.268 127.811ZM297.764 125.245C298.549 128.111 298.549 130.908 297.764 133.635C279.967 133.265 265.06 133.265 253.042 133.635C252.302 130.908 252.302 128.111 253.042 125.245C260.623 124.506 264.459 123.096 264.552 121.016C265.106 93.8822 265.153 66.5869 264.69 39.1299C261.593 38.1592 257.711 37.5352 253.042 37.2578C252.025 34.5306 252.025 31.5954 253.042 28.4521C260.068 28.0824 267.926 26.0023 276.616 22.2119C281.655 22.5817 285.399 24.1071 287.849 26.7881C287.664 67.9736 287.849 99.3828 288.403 121.016C288.496 123.096 291.616 124.506 297.764 125.245Z" fill="black"/>
<path d="M341.237 72.4805C344.935 72.4805 347.616 73.6823 349.28 76.0859C350.944 78.4434 351.776 81.4017 351.776 84.9609C351.776 86.3014 351.545 87.8268 351.083 89.5371H324.042C325.475 83.7591 327.786 79.4834 330.976 76.71C334.211 73.8903 337.632 72.4805 341.237 72.4805ZM323.349 94.252H361.137C361.876 91.9408 362.246 89.5602 362.246 87.1104C362.246 81.7021 360.698 77.1722 357.601 73.5205C354.55 69.8226 349.673 67.9736 342.971 67.9736C334.234 67.9736 326.885 71.14 320.922 77.4727C314.959 83.8053 311.978 91.8483 311.978 101.602C311.978 112.002 314.82 119.837 320.506 125.106C326.191 130.376 332.871 133.011 340.544 133.011C346.229 133.011 351.499 131.485 356.353 128.435C361.252 125.338 364.835 120.692 367.1 114.498C366.452 113.758 365.551 113.25 364.396 112.973C364.211 113.25 363.656 114.013 362.731 115.261C361.853 116.463 361.206 117.341 360.79 117.896C360.374 118.404 359.611 119.167 358.502 120.184C357.439 121.154 356.399 121.871 355.382 122.333C354.411 122.795 353.163 123.257 351.638 123.72C350.112 124.136 348.448 124.344 346.646 124.344C339.527 124.344 333.865 122.241 329.658 118.034C325.452 113.782 323.256 108.073 323.071 100.908C323.071 99.2904 323.164 97.0716 323.349 94.252ZM363.286 109.714C366.198 110.361 368.556 111.817 370.358 114.082C367.724 121.293 363.656 126.724 358.155 130.376C352.655 134.028 346.784 135.854 340.544 135.854C332.039 135.854 324.666 132.988 318.426 127.256C312.232 121.524 309.135 112.973 309.135 101.602C309.135 91.2936 312.301 82.6497 318.634 75.6699C325.013 68.6439 334.026 65.1309 345.675 65.1309C363.286 65.1309 372.092 72.4574 372.092 87.1104C372.092 89.9762 371.422 93.3044 370.081 97.0947H332.848V101.602C333.079 107.195 334.604 111.748 337.424 115.261C340.243 118.728 344.126 120.761 349.072 121.362C351.984 121.085 354.388 120.091 356.283 118.381C358.178 116.671 360.513 113.782 363.286 109.714ZM348.934 84.9609C348.934 79.8763 347.223 76.8024 343.803 75.7393C339.735 76.9873 336.707 80.639 334.72 86.6943H348.795C348.795 86.5094 348.818 86.2321 348.864 85.8623C348.91 85.4925 348.934 85.1921 348.934 84.9609Z" fill="black"/>
<path d="M376.113 66.9336C390.489 67.4421 404.865 67.4421 419.24 66.9336C420.303 70.0768 420.303 72.8734 419.24 75.3232C416.236 75.7855 414.225 76.3402 413.208 76.9873C412.237 77.5882 412.029 78.6976 412.584 80.3154L420.142 100.631L428.67 80.3154C429.41 78.6051 429.34 77.4727 428.462 76.918C427.63 76.3171 425.712 75.7855 422.707 75.3232C421.644 72.5036 421.644 69.707 422.707 66.9336C432.46 67.2109 442.144 67.2109 451.759 66.9336C452.822 69.707 452.822 72.5036 451.759 75.3232C448.292 75.6006 445.819 76.1322 444.34 76.918C442.861 77.6576 441.751 78.8825 441.012 80.5928L416.605 135.854H409.325L387.623 80.4541C386.93 78.8363 385.705 77.6807 383.948 76.9873C382.238 76.2477 379.626 75.693 376.113 75.3232C375.05 72.5036 375.05 69.707 376.113 66.9336ZM417.16 69.499C404.171 69.9613 391.205 69.9613 378.263 69.499C377.754 70.7471 377.754 71.8333 378.263 72.7578C381.729 73.1738 384.364 73.7979 386.167 74.6299C387.97 75.4619 389.356 77.0798 390.327 79.4834L411.336 133.011H414.733L438.446 79.4834C440.434 75.277 444.178 73.0352 449.679 72.7578C450.141 71.8333 450.141 70.7471 449.679 69.499C441.451 69.7764 433.154 69.7764 424.787 69.499C424.325 70.7471 424.325 71.8333 424.787 72.7578C426.59 72.8503 428.023 73.0814 429.086 73.4512C430.195 73.7747 431.189 74.445 432.067 75.4619C432.992 76.4326 432.992 77.7731 432.067 79.4834L415.981 117.479L402.253 79.4834C401.744 78.2354 401.744 77.1953 402.253 76.3633C402.808 75.485 403.894 74.8148 405.512 74.3525C407.13 73.8903 408.771 73.5667 410.435 73.3818C412.145 73.1507 414.387 72.9427 417.16 72.7578C417.622 71.8333 417.622 70.7471 417.16 69.499Z" fill="black"/>
<path d="M493.083 72.4805C496.781 72.4805 499.462 73.6823 501.126 76.0859C502.79 78.4434 503.622 81.4017 503.622 84.9609C503.622 86.3014 503.391 87.8268 502.929 89.5371H475.888C477.321 83.7591 479.632 79.4834 482.821 76.71C486.057 73.8903 489.478 72.4805 493.083 72.4805ZM475.194 94.252H512.982C513.722 91.9408 514.092 89.5602 514.092 87.1104C514.092 81.7021 512.543 77.1722 509.446 73.5205C506.396 69.8226 501.519 67.9736 494.816 67.9736C486.08 67.9736 478.73 71.14 472.768 77.4727C466.805 83.8053 463.823 91.8483 463.823 101.602C463.823 112.002 466.666 119.837 472.352 125.106C478.037 130.376 484.716 133.011 492.39 133.011C498.075 133.011 503.345 131.485 508.198 128.435C513.098 125.338 516.68 120.692 518.945 114.498C518.298 113.758 517.397 113.25 516.241 112.973C516.056 113.25 515.502 114.013 514.577 115.261C513.699 116.463 513.052 117.341 512.636 117.896C512.22 118.404 511.457 119.167 510.348 120.184C509.285 121.154 508.244 121.871 507.228 122.333C506.257 122.795 505.009 123.257 503.483 123.72C501.958 124.136 500.294 124.344 498.491 124.344C491.373 124.344 485.71 122.241 481.504 118.034C477.298 113.782 475.102 108.073 474.917 100.908C474.917 99.2904 475.009 97.0716 475.194 94.252ZM515.132 109.714C518.044 110.361 520.401 111.817 522.204 114.082C519.569 121.293 515.502 126.724 510.001 130.376C504.5 134.028 498.63 135.854 492.39 135.854C483.884 135.854 476.512 132.988 470.271 127.256C464.077 121.524 460.98 112.973 460.98 101.602C460.98 91.2936 464.147 82.6497 470.479 75.6699C476.858 68.6439 485.872 65.1309 497.521 65.1309C515.132 65.1309 523.938 72.4574 523.938 87.1104C523.938 89.9762 523.267 93.3044 521.927 97.0947H484.693V101.602C484.924 107.195 486.45 111.748 489.27 115.261C492.089 118.728 495.972 120.761 500.918 121.362C503.83 121.085 506.234 120.091 508.129 118.381C510.024 116.671 512.358 113.782 515.132 109.714ZM500.779 84.9609C500.779 79.8763 499.069 76.8024 495.648 75.7393C491.581 76.9873 488.553 80.639 486.565 86.6943H500.641C500.641 86.5094 500.664 86.2321 500.71 85.8623C500.756 85.4925 500.779 85.1921 500.779 84.9609Z" fill="black"/>
<path d="M577.188 127.811C566.186 126.794 560.639 124.575 560.547 121.154C560.085 95.5462 559.9 64.3219 559.992 27.4814C559.622 26.7419 558.813 26.1178 557.565 25.6094C551.14 28.6602 544.461 30.5553 537.527 31.2949C537.25 32.4505 537.25 33.5368 537.527 34.5537C542.751 34.8773 546.726 35.8249 549.453 37.3965C549.823 72.1569 549.777 100.076 549.314 121.154C549.222 124.575 545.293 126.794 537.527 127.811C537.065 128.966 537.065 130.099 537.527 131.208C548.251 130.838 561.471 130.838 577.188 131.208C577.65 130.099 577.65 128.966 577.188 127.811ZM579.684 125.245C580.469 128.111 580.469 130.908 579.684 133.635C561.887 133.265 546.98 133.265 534.962 133.635C534.222 130.908 534.222 128.111 534.962 125.245C542.543 124.506 546.379 123.096 546.472 121.016C547.026 93.8822 547.073 66.5869 546.61 39.1299C543.513 38.1592 539.631 37.5352 534.962 37.2578C533.945 34.5306 533.945 31.5954 534.962 28.4521C541.988 28.0824 549.846 26.0023 558.536 22.2119C563.575 22.5817 567.319 24.1071 569.769 26.7881C569.584 67.9736 569.769 99.3828 570.323 121.016C570.416 123.096 573.536 124.506 579.684 125.245Z" fill="black"/>
</svg>
