<svg width="760" height="804" viewBox="0 0 760 804" fill="none" xmlns="http://www.w3.org/2000/svg">
<path d="M140.062 9.93555H522.831C526.46 9.93555 529.941 11.3648 532.507 13.9089C535.074 16.4529 536.516 19.9034 536.516 23.5013V415.093H126.377V23.5013C126.377 19.9034 127.819 16.4529 130.385 13.9089C132.951 11.3648 136.432 9.93555 140.062 9.93555V9.93555Z" fill="#263238"/>
<path d="M536.484 415.889H126.377C126.165 415.885 125.963 415.8 125.814 415.652C125.664 415.503 125.578 415.303 125.574 415.093V23.5014C125.574 19.7009 127.097 16.056 129.808 13.3686C132.519 10.6812 136.196 9.17139 140.03 9.17139H522.831C526.665 9.17139 530.342 10.6812 533.053 13.3686C535.764 16.056 537.287 19.7009 537.287 23.5014V415.093C537.283 415.303 537.197 415.503 537.047 415.652C536.897 415.8 536.696 415.885 536.484 415.889ZM127.18 414.297H535.681V23.5014C535.681 20.1231 534.327 16.8832 531.917 14.4944C529.507 12.1056 526.239 10.7636 522.831 10.7636H140.062C136.654 10.7636 133.386 12.1056 130.976 14.4944C128.566 16.8832 127.212 20.1231 127.212 23.5014L127.18 414.297Z" fill="#263238"/>
<path d="M149.411 0.685059H532.131C533.935 0.685028 535.721 1.03854 537.387 1.72525C539.052 2.41197 540.565 3.41834 541.836 4.68648C543.108 5.95462 544.115 7.45951 544.798 9.11458C545.481 10.7697 545.827 12.5423 545.816 14.3304V405.827H135.725V14.3304C135.715 12.5423 136.061 10.7697 136.744 9.11458C137.427 7.45951 138.433 5.95462 139.705 4.68648C140.977 3.41834 142.489 2.41197 144.155 1.72525C145.82 1.03854 147.607 0.685028 149.411 0.685059Z" fill="white"/>
<path d="M545.816 406.622H135.725C135.512 406.622 135.308 406.539 135.157 406.389C135.006 406.24 134.922 406.037 134.922 405.826V14.33C134.922 10.5295 136.445 6.88457 139.156 4.19717C141.867 1.50977 145.544 0 149.378 0H532.131C535.965 0 539.642 1.50977 542.353 4.19717C545.064 6.88457 546.587 10.5295 546.587 14.33V405.826C546.587 406.032 546.507 406.23 546.363 406.378C546.219 406.527 546.023 406.614 545.816 406.622ZM136.512 405.03H545.013V14.33C545.013 10.9518 543.659 7.71184 541.249 5.32304C538.839 2.93424 535.571 1.59223 532.163 1.59223H149.41C146.002 1.59223 142.734 2.93424 140.324 5.32304C137.914 7.71184 136.56 10.9518 136.56 14.33L136.512 405.03Z" fill="#263238"/>
<path d="M149.411 0.685059H532.131C533.935 0.685028 535.721 1.03854 537.387 1.72525C539.052 2.41197 540.565 3.41834 541.836 4.68648C543.108 5.95462 544.115 7.45951 544.798 9.11458C545.481 10.7697 545.827 12.5423 545.816 14.3304V39.4876H135.725V14.3304C135.715 12.5423 136.061 10.7697 136.744 9.11458C137.427 7.45951 138.433 5.95462 139.705 4.68648C140.977 3.41834 142.489 2.41197 144.155 1.72525C145.82 1.03854 147.607 0.685028 149.411 0.685059Z" fill="#E8AA42"/>
<path d="M545.816 40.2037H135.725C135.512 40.2037 135.308 40.1198 135.157 39.9705C135.006 39.8212 134.922 39.6187 134.922 39.4076V14.33C134.922 10.5295 136.445 6.88457 139.156 4.19717C141.867 1.50977 145.544 0 149.378 0H532.131C535.965 0 539.642 1.50977 542.353 4.19717C545.064 6.88457 546.587 10.5295 546.587 14.33V39.4872C546.568 39.6789 546.479 39.8571 546.337 39.9889C546.195 40.1206 546.01 40.1969 545.816 40.2037ZM136.512 38.6115H545.013V14.33C545.013 10.9518 543.659 7.71184 541.249 5.32304C538.839 2.93424 535.571 1.59223 532.163 1.59223H149.41C146.002 1.59223 142.734 2.93424 140.324 5.32304C137.914 7.71184 136.56 10.9518 136.56 14.33L136.512 38.6115Z" fill="#263238"/>
<path d="M479.847 21.2883C479.847 20.0287 479.47 18.7973 478.764 17.75C478.058 16.7026 477.055 15.8863 475.881 15.4042C474.707 14.9222 473.415 14.7961 472.169 15.0418C470.922 15.2876 469.777 15.8941 468.879 16.7848C467.98 17.6756 467.368 18.8104 467.121 20.0458C466.873 21.2813 467 22.5618 467.486 23.7256C467.972 24.8894 468.796 25.8841 469.853 26.5839C470.909 27.2837 472.151 27.6572 473.422 27.6572C475.126 27.6572 476.76 26.9862 477.965 25.7918C479.17 24.5974 479.847 22.9775 479.847 21.2883Z" fill="white"/>
<path d="M473.487 28.3893C472.065 28.3924 470.675 27.9773 469.492 27.1964C468.309 26.4156 467.386 25.3042 466.84 24.003C466.295 22.7019 466.151 21.2695 466.428 19.8874C466.704 18.5053 467.389 17.2357 468.394 16.2394C469.399 15.2431 470.68 14.5649 472.074 14.2908C473.468 14.0167 474.913 14.1589 476.226 14.6996C477.538 15.2403 478.66 16.155 479.447 17.3278C480.235 18.5007 480.654 19.8789 480.651 21.2879C480.651 23.1713 479.896 24.9776 478.552 26.3093C477.209 27.6411 475.387 28.3893 473.487 28.3893V28.3893ZM473.487 15.7629C472.384 15.7598 471.305 16.0811 470.386 16.6863C469.467 17.2915 468.75 18.1533 468.326 19.1625C467.902 20.1718 467.789 21.2832 468.002 22.356C468.215 23.4288 468.745 24.4148 469.524 25.1891C470.303 25.9633 471.296 26.4911 472.377 26.7056C473.459 26.9201 474.581 26.8116 475.6 26.3939C476.619 25.9762 477.491 25.268 478.104 24.3591C478.717 23.4502 479.044 22.3814 479.044 21.2879C479.044 19.8254 478.459 18.4225 477.418 17.3868C476.376 16.3511 474.962 15.7671 473.487 15.7629Z" fill="#263238"/>
<path d="M498.962 21.2883C498.962 20.0287 498.585 18.7973 497.879 17.75C497.173 16.7026 496.17 15.8863 494.996 15.4042C493.822 14.9222 492.53 14.7961 491.283 15.0418C490.037 15.2876 488.892 15.8941 487.994 16.7848C487.095 17.6756 486.483 18.8104 486.235 20.0458C485.987 21.2813 486.115 22.5618 486.601 23.7256C487.087 24.8894 487.911 25.8841 488.967 26.5839C490.024 27.2837 491.266 27.6572 492.537 27.6572C494.241 27.6572 495.875 26.9862 497.08 25.7918C498.285 24.5974 498.962 22.9775 498.962 21.2883Z" fill="white"/>
<path d="M492.585 28.3893C491.164 28.3893 489.775 27.9715 488.594 27.1887C487.413 26.4059 486.493 25.2934 485.95 23.992C485.407 22.6906 485.266 21.2587 485.544 19.8777C485.822 18.4966 486.508 17.2285 487.513 16.2337C488.519 15.239 489.8 14.5624 491.194 14.2896C492.588 14.0168 494.032 14.16 495.344 14.7011C496.655 15.2423 497.775 16.157 498.562 17.3295C499.349 18.502 499.768 19.8796 499.765 21.288C499.765 22.2219 499.579 23.1466 499.218 24.0092C498.857 24.8718 498.328 25.6554 497.661 26.315C496.994 26.9746 496.202 27.4974 495.331 27.8533C494.46 28.2092 493.527 28.3914 492.585 28.3893ZM492.585 15.7629C491.482 15.7629 490.405 16.087 489.488 16.6941C488.572 17.3012 487.857 18.1641 487.435 19.1736C487.013 20.1832 486.903 21.2941 487.118 22.3658C487.333 23.4376 487.864 24.4221 488.644 25.1947C489.423 25.9674 490.416 26.4936 491.497 26.7068C492.579 26.92 493.699 26.8106 494.718 26.3924C495.736 25.9742 496.607 25.2661 497.219 24.3575C497.832 23.4489 498.158 22.3807 498.158 21.288C498.158 19.8226 497.571 18.4173 496.526 17.3812C495.481 16.345 494.063 15.7629 492.585 15.7629V15.7629Z" fill="#263238"/>
<path d="M518.012 21.2883C518.012 20.0287 517.635 18.7973 516.929 17.75C516.223 16.7026 515.22 15.8863 514.046 15.4042C512.872 14.9222 511.58 14.7961 510.334 15.0418C509.087 15.2876 507.942 15.8941 507.044 16.7848C506.145 17.6756 505.533 18.8104 505.286 20.0458C505.038 21.2813 505.165 22.5618 505.651 23.7256C506.137 24.8894 506.961 25.8841 508.018 26.5839C509.074 27.2837 510.316 27.6572 511.587 27.6572C513.291 27.6572 514.925 26.9862 516.13 25.7918C517.335 24.5974 518.012 22.9775 518.012 21.2883Z" fill="#263238"/>
<path d="M511.683 28.3893C510.263 28.3893 508.874 27.9715 507.693 27.1887C506.512 26.4059 505.591 25.2934 505.048 23.992C504.505 22.6906 504.364 21.2587 504.643 19.8777C504.921 18.4966 505.606 17.2285 506.612 16.2337C507.618 15.239 508.899 14.5624 510.292 14.2896C511.686 14.0168 513.13 14.16 514.442 14.7011C515.754 15.2423 516.874 16.157 517.661 17.3295C518.448 18.502 518.866 19.8796 518.863 21.288C518.863 22.2219 518.677 23.1466 518.316 24.0092C517.955 24.8718 517.426 25.6554 516.759 26.315C516.092 26.9746 515.301 27.4974 514.43 27.8533C513.559 28.2092 512.625 28.3914 511.683 28.3893V28.3893ZM511.683 15.7629C510.581 15.7629 509.503 16.087 508.587 16.6941C507.67 17.3012 506.956 18.1641 506.534 19.1736C506.112 20.1832 506.002 21.2941 506.217 22.3658C506.432 23.4376 506.963 24.4221 507.742 25.1947C508.522 25.9674 509.515 26.4936 510.596 26.7068C511.677 26.92 512.798 26.8106 513.816 26.3924C514.835 25.9742 515.705 25.2661 516.318 24.3575C516.93 23.4489 517.257 22.3807 517.257 21.288C517.257 19.8226 516.67 18.4173 515.625 17.3812C514.579 16.345 513.162 15.7629 511.683 15.7629V15.7629Z" fill="#263238"/>
<path d="M208.006 64.9476H177.792C177.153 64.9476 176.541 64.6959 176.089 64.248C175.637 63.8001 175.383 63.1927 175.383 62.5592C175.383 61.9258 175.637 61.3183 176.089 60.8704C176.541 60.4225 177.153 60.1709 177.792 60.1709H208.006C208.645 60.1709 209.258 60.4225 209.71 60.8704C210.161 61.3183 210.415 61.9258 210.415 62.5592C210.415 63.1927 210.161 63.8001 209.71 64.248C209.258 64.6959 208.645 64.9476 208.006 64.9476V64.9476Z" fill="#263238"/>
<path d="M291.081 82.5096H177.792C177.153 82.5096 176.541 82.258 176.089 81.8101C175.637 81.3622 175.383 80.7547 175.383 80.1212C175.383 79.4878 175.637 78.8803 176.089 78.4324C176.541 77.9845 177.153 77.7329 177.792 77.7329H291.081C291.72 77.7329 292.333 77.9845 292.785 78.4324C293.237 78.8803 293.49 79.4878 293.49 80.1212C293.49 80.7547 293.237 81.3622 292.785 81.8101C292.333 82.258 291.72 82.5096 291.081 82.5096V82.5096Z" fill="#C4C4C4"/>
<path d="M466.307 82.5096H353.018C352.379 82.5096 351.766 82.258 351.314 81.8101C350.862 81.3622 350.609 80.7547 350.609 80.1212C350.609 79.4878 350.862 78.8803 351.314 78.4324C351.766 77.9845 352.379 77.7329 353.018 77.7329H466.307C466.946 77.7329 467.558 77.9845 468.01 78.4324C468.462 78.8803 468.716 79.4878 468.716 80.1212C468.716 80.7547 468.462 81.3622 468.01 81.8101C467.558 82.258 466.946 82.5096 466.307 82.5096V82.5096Z" fill="#C4C4C4"/>
<path d="M343.236 82.5096H298.422C297.783 82.5096 297.17 82.258 296.718 81.8101C296.266 81.3622 296.012 80.7547 296.012 80.1212C296.012 79.4878 296.266 78.8803 296.718 78.4324C297.17 77.9845 297.783 77.7329 298.422 77.7329H343.236C343.875 77.7329 344.488 77.9845 344.94 78.4324C345.392 78.8803 345.645 79.4878 345.645 80.1212C345.645 80.7547 345.392 81.3622 344.94 81.8101C344.488 82.258 343.875 82.5096 343.236 82.5096Z" fill="#263238"/>
<path d="M242.99 100.072H177.792C177.153 100.072 176.541 99.82 176.089 99.3721C175.637 98.9242 175.383 98.3167 175.383 97.6833C175.383 97.0498 175.637 96.4423 176.089 95.9944C176.541 95.5465 177.153 95.2949 177.792 95.2949H242.99C243.629 95.2949 244.242 95.5465 244.694 95.9944C245.146 96.4423 245.399 97.0498 245.399 97.6833C245.399 98.3167 245.146 98.9242 244.694 99.3721C244.242 99.82 243.629 100.072 242.99 100.072Z" fill="#263238"/>
<path d="M316.348 100.072H251.15C250.511 100.072 249.898 99.82 249.446 99.3721C248.995 98.9242 248.741 98.3167 248.741 97.6833C248.741 97.0498 248.995 96.4423 249.446 95.9944C249.898 95.5465 250.511 95.2949 251.15 95.2949H316.348C316.987 95.2949 317.599 95.5465 318.051 95.9944C318.503 96.4423 318.757 97.0498 318.757 97.6833C318.757 98.3167 318.503 98.9242 318.051 99.3721C317.599 99.82 316.987 100.072 316.348 100.072Z" fill="#263238"/>
<path d="M389.689 100.072H324.491C323.852 100.072 323.24 99.82 322.788 99.3721C322.336 98.9242 322.082 98.3167 322.082 97.6833C322.082 97.0498 322.336 96.4423 322.788 95.9944C323.24 95.5465 323.852 95.2949 324.491 95.2949H389.689C390.328 95.2949 390.941 95.5465 391.393 95.9944C391.844 96.4423 392.098 97.0498 392.098 97.6833C392.098 98.3167 391.844 98.9242 391.393 99.3721C390.941 99.82 390.328 100.072 389.689 100.072Z" fill="#263238"/>
<path d="M425.556 100.072H397.848C397.209 100.072 396.596 99.82 396.145 99.3721C395.693 98.9242 395.439 98.3167 395.439 97.6833C395.439 97.0498 395.693 96.4423 396.145 95.9944C396.596 95.5465 397.209 95.2949 397.848 95.2949H425.556C426.195 95.2949 426.808 95.5465 427.26 95.9944C427.712 96.4423 427.965 97.0498 427.965 97.6833C427.965 98.3167 427.712 98.9242 427.26 99.3721C426.808 99.82 426.195 100.072 425.556 100.072Z" fill="#263238"/>
<path d="M246.251 64.9476H216.038C215.399 64.9476 214.786 64.6959 214.334 64.248C213.882 63.8001 213.628 63.1927 213.628 62.5592C213.628 61.9258 213.882 61.3183 214.334 60.8704C214.786 60.4225 215.399 60.1709 216.038 60.1709H246.187C246.826 60.1709 247.439 60.4225 247.89 60.8704C248.342 61.3183 248.596 61.9258 248.596 62.5592C248.596 63.1927 248.342 63.8001 247.89 64.248C247.439 64.6959 246.826 64.9476 246.187 64.9476H246.251Z" fill="#263238"/>
<path d="M425.556 64.9476H395.407C394.768 64.9476 394.155 64.6959 393.703 64.248C393.251 63.8001 392.997 63.1927 392.997 62.5592C392.997 61.9258 393.251 61.3183 393.703 60.8704C394.155 60.4225 394.768 60.1709 395.407 60.1709H425.556C426.195 60.1709 426.808 60.4225 427.26 60.8704C427.711 61.3183 427.965 61.9258 427.965 62.5592C427.965 63.1927 427.711 63.8001 427.26 64.248C426.808 64.6959 426.195 64.9476 425.556 64.9476V64.9476Z" fill="#263238"/>
<path d="M385.625 64.9476H355.46C354.821 64.9476 354.208 64.6959 353.756 64.248C353.304 63.8001 353.05 63.1927 353.05 62.5592C353.05 61.9258 353.304 61.3183 353.756 60.8704C354.208 60.4225 354.821 60.1709 355.46 60.1709H385.625C386.264 60.1709 386.877 60.4225 387.329 60.8704C387.78 61.3183 388.034 61.9258 388.034 62.5592C388.034 63.1927 387.78 63.8001 387.329 64.248C386.877 64.6959 386.264 64.9476 385.625 64.9476V64.9476Z" fill="#C4C4C4"/>
<path d="M342.417 64.9476H254.41C253.771 64.9476 253.159 64.6959 252.707 64.248C252.255 63.8001 252.001 63.1927 252.001 62.5592C252.001 61.9258 252.255 61.3183 252.707 60.8704C253.159 60.4225 253.771 60.1709 254.41 60.1709H342.417C343.056 60.1709 343.668 60.4225 344.12 60.8704C344.572 61.3183 344.826 61.9258 344.826 62.5592C344.826 63.1927 344.572 63.8001 344.12 64.248C343.668 64.6959 343.056 64.9476 342.417 64.9476V64.9476Z" fill="#263238"/>
<path d="M208.006 172.151H177.792C177.153 172.151 176.541 171.9 176.089 171.452C175.637 171.004 175.383 170.396 175.383 169.763C175.383 169.129 175.637 168.522 176.089 168.074C176.541 167.626 177.153 167.375 177.792 167.375H208.006C208.645 167.375 209.258 167.626 209.71 168.074C210.161 168.522 210.415 169.129 210.415 169.763C210.415 170.396 210.161 171.004 209.71 171.452C209.258 171.9 208.645 172.151 208.006 172.151Z" fill="#263238"/>
<path d="M291.081 189.713H177.792C177.153 189.713 176.541 189.462 176.089 189.014C175.637 188.566 175.383 187.958 175.383 187.325C175.383 186.691 175.637 186.084 176.089 185.636C176.541 185.188 177.153 184.937 177.792 184.937H291.081C291.72 184.937 292.333 185.188 292.785 185.636C293.237 186.084 293.49 186.691 293.49 187.325C293.49 187.958 293.237 188.566 292.785 189.014C292.333 189.462 291.72 189.713 291.081 189.713V189.713Z" fill="#C4C4C4"/>
<path d="M466.307 189.713H353.018C352.379 189.713 351.766 189.462 351.314 189.014C350.862 188.566 350.609 187.958 350.609 187.325C350.609 186.691 350.862 186.084 351.314 185.636C351.766 185.188 352.379 184.937 353.018 184.937H466.307C466.946 184.937 467.558 185.188 468.01 185.636C468.462 186.084 468.716 186.691 468.716 187.325C468.716 187.958 468.462 188.566 468.01 189.014C467.558 189.462 466.946 189.713 466.307 189.713V189.713Z" fill="#263238"/>
<path d="M343.236 189.713H298.422C297.783 189.713 297.17 189.462 296.718 189.014C296.266 188.566 296.012 187.958 296.012 187.325C296.012 186.691 296.266 186.084 296.718 185.636C297.17 185.188 297.783 184.937 298.422 184.937H343.236C343.875 184.937 344.488 185.188 344.94 185.636C345.392 186.084 345.645 186.691 345.645 187.325C345.645 187.958 345.392 188.566 344.94 189.014C344.488 189.462 343.875 189.713 343.236 189.713Z" fill="#263238"/>
<path d="M242.99 207.26H177.792C177.153 207.26 176.541 207.008 176.089 206.56C175.637 206.112 175.383 205.505 175.383 204.871C175.383 204.238 175.637 203.63 176.089 203.182C176.541 202.735 177.153 202.483 177.792 202.483H242.99C243.629 202.483 244.242 202.735 244.694 203.182C245.146 203.63 245.399 204.238 245.399 204.871C245.399 205.505 245.146 206.112 244.694 206.56C244.242 207.008 243.629 207.26 242.99 207.26V207.26Z" fill="#263238"/>
<path d="M316.348 207.26H251.15C250.511 207.26 249.898 207.008 249.446 206.56C248.995 206.112 248.741 205.505 248.741 204.871C248.741 204.238 248.995 203.63 249.446 203.182C249.898 202.735 250.511 202.483 251.15 202.483H316.348C316.987 202.483 317.599 202.735 318.051 203.182C318.503 203.63 318.757 204.238 318.757 204.871C318.757 205.505 318.503 206.112 318.051 206.56C317.599 207.008 316.987 207.26 316.348 207.26V207.26Z" fill="#263238"/>
<path d="M389.689 207.26H324.491C323.852 207.26 323.24 207.008 322.788 206.56C322.336 206.112 322.082 205.505 322.082 204.871C322.082 204.238 322.336 203.63 322.788 203.182C323.24 202.735 323.852 202.483 324.491 202.483H389.689C390.328 202.483 390.941 202.735 391.393 203.182C391.844 203.63 392.098 204.238 392.098 204.871C392.098 205.505 391.844 206.112 391.393 206.56C390.941 207.008 390.328 207.26 389.689 207.26V207.26Z" fill="#C4C4C4"/>
<path d="M425.556 207.26H397.848C397.209 207.26 396.596 207.008 396.145 206.56C395.693 206.112 395.439 205.505 395.439 204.871C395.439 204.238 395.693 203.63 396.145 203.182C396.596 202.735 397.209 202.483 397.848 202.483H425.556C426.195 202.483 426.808 202.735 427.26 203.182C427.712 203.63 427.965 204.238 427.965 204.871C427.965 205.505 427.712 206.112 427.26 206.56C426.808 207.008 426.195 207.26 425.556 207.26V207.26Z" fill="#263238"/>
<path d="M246.251 172.151H216.038C215.399 172.151 214.786 171.9 214.334 171.452C213.882 171.004 213.628 170.396 213.628 169.763C213.628 169.129 213.882 168.522 214.334 168.074C214.786 167.626 215.399 167.375 216.038 167.375H246.187C246.826 167.375 247.439 167.626 247.89 168.074C248.342 168.522 248.596 169.129 248.596 169.763C248.596 170.396 248.342 171.004 247.89 171.452C247.439 171.9 246.826 172.151 246.187 172.151H246.251Z" fill="#263238"/>
<path d="M425.556 172.151H395.407C394.768 172.151 394.155 171.9 393.703 171.452C393.251 171.004 392.997 170.396 392.997 169.763C392.997 169.129 393.251 168.522 393.703 168.074C394.155 167.626 394.768 167.375 395.407 167.375H425.556C426.195 167.375 426.808 167.626 427.26 168.074C427.711 168.522 427.965 169.129 427.965 169.763C427.965 170.396 427.711 171.004 427.26 171.452C426.808 171.9 426.195 172.151 425.556 172.151Z" fill="#263238"/>
<path d="M385.625 172.151H355.46C354.821 172.151 354.208 171.9 353.756 171.452C353.304 171.004 353.05 170.396 353.05 169.763C353.05 169.129 353.304 168.522 353.756 168.074C354.208 167.626 354.821 167.375 355.46 167.375H385.625C386.264 167.375 386.877 167.626 387.329 168.074C387.78 168.522 388.034 169.129 388.034 169.763C388.034 170.396 387.78 171.004 387.329 171.452C386.877 171.9 386.264 172.151 385.625 172.151V172.151Z" fill="#C4C4C4"/>
<path d="M342.417 172.151H254.41C253.771 172.151 253.159 171.9 252.707 171.452C252.255 171.004 252.001 170.396 252.001 169.763C252.001 169.129 252.255 168.522 252.707 168.074C253.159 167.626 253.771 167.375 254.41 167.375H342.417C343.056 167.375 343.668 167.626 344.12 168.074C344.572 168.522 344.826 169.129 344.826 169.763C344.826 170.396 344.572 171.004 344.12 171.452C343.668 171.9 343.056 172.151 342.417 172.151V172.151Z" fill="#263238"/>
<path d="M208.006 330.18H177.792C177.153 330.18 176.541 329.928 176.089 329.48C175.637 329.033 175.383 328.425 175.383 327.792C175.383 327.158 175.637 326.551 176.089 326.103C176.541 325.655 177.153 325.403 177.792 325.403H208.006C208.645 325.403 209.258 325.655 209.71 326.103C210.161 326.551 210.415 327.158 210.415 327.792C210.415 328.425 210.161 329.033 209.71 329.48C209.258 329.928 208.645 330.18 208.006 330.18V330.18Z" fill="#263238"/>
<path d="M291.081 347.742H177.792C177.153 347.742 176.541 347.49 176.089 347.042C175.637 346.595 175.383 345.987 175.383 345.354C175.383 344.72 175.637 344.113 176.089 343.665C176.541 343.217 177.153 342.965 177.792 342.965H291.081C291.72 342.965 292.333 343.217 292.785 343.665C293.237 344.113 293.49 344.72 293.49 345.354C293.49 345.987 293.237 346.595 292.785 347.042C292.333 347.49 291.72 347.742 291.081 347.742V347.742Z" fill="#C4C4C4"/>
<path d="M466.307 347.742H353.018C352.379 347.742 351.766 347.49 351.314 347.042C350.862 346.595 350.609 345.987 350.609 345.354C350.609 344.72 350.862 344.113 351.314 343.665C351.766 343.217 352.379 342.965 353.018 342.965H466.307C466.946 342.965 467.558 343.217 468.01 343.665C468.462 344.113 468.716 344.72 468.716 345.354C468.716 345.987 468.462 346.595 468.01 347.042C467.558 347.49 466.946 347.742 466.307 347.742V347.742Z" fill="#263238"/>
<path d="M343.236 347.742H298.422C297.783 347.742 297.17 347.49 296.718 347.042C296.266 346.595 296.012 345.987 296.012 345.354C296.012 344.72 296.266 344.113 296.718 343.665C297.17 343.217 297.783 342.965 298.422 342.965H343.236C343.875 342.965 344.488 343.217 344.94 343.665C345.392 344.113 345.645 344.72 345.645 345.354C345.645 345.987 345.392 346.595 344.94 347.042C344.488 347.49 343.875 347.742 343.236 347.742Z" fill="#263238"/>
<path d="M242.99 365.288H177.792C177.153 365.288 176.541 365.037 176.089 364.589C175.637 364.141 175.383 363.533 175.383 362.9C175.383 362.267 175.637 361.659 176.089 361.211C176.541 360.763 177.153 360.512 177.792 360.512H242.99C243.629 360.512 244.242 360.763 244.694 361.211C245.146 361.659 245.399 362.267 245.399 362.9C245.399 363.533 245.146 364.141 244.694 364.589C244.242 365.037 243.629 365.288 242.99 365.288V365.288Z" fill="#263238"/>
<path d="M316.348 365.288H251.15C250.511 365.288 249.898 365.037 249.446 364.589C248.995 364.141 248.741 363.533 248.741 362.9C248.741 362.267 248.995 361.659 249.446 361.211C249.898 360.763 250.511 360.512 251.15 360.512H316.348C316.987 360.512 317.599 360.763 318.051 361.211C318.503 361.659 318.757 362.267 318.757 362.9C318.757 363.533 318.503 364.141 318.051 364.589C317.599 365.037 316.987 365.288 316.348 365.288V365.288Z" fill="#263238"/>
<path d="M389.689 365.288H324.491C323.852 365.288 323.24 365.037 322.788 364.589C322.336 364.141 322.082 363.533 322.082 362.9C322.082 362.267 322.336 361.659 322.788 361.211C323.24 360.763 323.852 360.512 324.491 360.512H389.689C390.328 360.512 390.941 360.763 391.393 361.211C391.844 361.659 392.098 362.267 392.098 362.9C392.098 363.533 391.844 364.141 391.393 364.589C390.941 365.037 390.328 365.288 389.689 365.288V365.288Z" fill="#C4C4C4"/>
<path d="M425.556 365.288H397.848C397.209 365.288 396.596 365.037 396.145 364.589C395.693 364.141 395.439 363.533 395.439 362.9C395.439 362.267 395.693 361.659 396.145 361.211C396.596 360.763 397.209 360.512 397.848 360.512H425.556C426.195 360.512 426.808 360.763 427.26 361.211C427.712 361.659 427.965 362.267 427.965 362.9C427.965 363.533 427.712 364.141 427.26 364.589C426.808 365.037 426.195 365.288 425.556 365.288V365.288Z" fill="#263238"/>
<path d="M246.251 330.18H216.038C215.399 330.18 214.786 329.928 214.334 329.48C213.882 329.033 213.628 328.425 213.628 327.792C213.628 327.158 213.882 326.551 214.334 326.103C214.786 325.655 215.399 325.403 216.038 325.403H246.187C246.826 325.403 247.439 325.655 247.89 326.103C248.342 326.551 248.596 327.158 248.596 327.792C248.596 328.425 248.342 329.033 247.89 329.48C247.439 329.928 246.826 330.18 246.187 330.18H246.251Z" fill="#263238"/>
<path d="M425.556 330.18H395.407C394.768 330.18 394.155 329.928 393.703 329.48C393.251 329.033 392.997 328.425 392.997 327.792C392.997 327.158 393.251 326.551 393.703 326.103C394.155 325.655 394.768 325.403 395.407 325.403H425.556C426.195 325.403 426.808 325.655 427.26 326.103C427.711 326.551 427.965 327.158 427.965 327.792C427.965 328.425 427.711 329.033 427.26 329.48C426.808 329.928 426.195 330.18 425.556 330.18V330.18Z" fill="#263238"/>
<path d="M385.625 330.18H355.46C354.821 330.18 354.208 329.928 353.756 329.48C353.304 329.033 353.05 328.425 353.05 327.792C353.05 327.158 353.304 326.551 353.756 326.103C354.208 325.655 354.821 325.403 355.46 325.403H385.625C386.264 325.403 386.877 325.655 387.329 326.103C387.78 326.551 388.034 327.158 388.034 327.792C388.034 328.425 387.78 329.033 387.329 329.48C386.877 329.928 386.264 330.18 385.625 330.18V330.18Z" fill="#C4C4C4"/>
<path d="M342.417 330.18H254.41C253.771 330.18 253.159 329.928 252.707 329.48C252.255 329.033 252.001 328.425 252.001 327.792C252.001 327.158 252.255 326.551 252.707 326.103C253.159 325.655 253.771 325.403 254.41 325.403H342.417C343.056 325.403 343.668 325.655 344.12 326.103C344.572 326.551 344.826 327.158 344.826 327.792C344.826 328.425 344.572 329.033 344.12 329.48C343.668 329.928 343.056 330.18 342.417 330.18V330.18Z" fill="#263238"/>
<path d="M377.465 118.541H347.316C346.677 118.541 346.064 118.29 345.612 117.842C345.161 117.394 344.907 116.786 344.907 116.153C344.907 115.52 345.161 114.912 345.612 114.464C346.064 114.016 346.677 113.765 347.316 113.765H377.465C378.104 113.765 378.717 114.016 379.169 114.464C379.621 114.912 379.875 115.52 379.875 116.153C379.875 116.786 379.621 117.394 379.169 117.842C378.717 118.29 378.104 118.541 377.465 118.541V118.541Z" fill="#263238"/>
<path d="M337.534 118.541H307.385C306.746 118.541 306.133 118.29 305.681 117.842C305.229 117.394 304.975 116.786 304.975 116.153C304.975 115.52 305.229 114.912 305.681 114.464C306.133 114.016 306.746 113.765 307.385 113.765H337.534C338.173 113.765 338.786 114.016 339.238 114.464C339.689 114.912 339.943 115.52 339.943 116.153C339.943 116.786 339.689 117.394 339.238 117.842C338.786 118.29 338.173 118.541 337.534 118.541Z" fill="#263238"/>
<path d="M294.342 118.541H206.4C205.761 118.541 205.148 118.29 204.696 117.842C204.244 117.394 203.99 116.786 203.99 116.153C203.99 115.52 204.244 114.912 204.696 114.464C205.148 114.016 205.761 113.765 206.4 113.765H294.422C295.061 113.765 295.674 114.016 296.126 114.464C296.577 114.912 296.831 115.52 296.831 116.153C296.831 116.786 296.577 117.394 296.126 117.842C295.674 118.29 295.061 118.541 294.422 118.541H294.342Z" fill="#263238"/>
<path d="M377.465 149.971H347.316C346.677 149.971 346.064 149.72 345.612 149.272C345.161 148.824 344.907 148.217 344.907 147.583C344.907 146.95 345.161 146.342 345.612 145.894C346.064 145.446 346.677 145.195 347.316 145.195H377.465C378.104 145.195 378.717 145.446 379.169 145.894C379.621 146.342 379.875 146.95 379.875 147.583C379.875 148.217 379.621 148.824 379.169 149.272C378.717 149.72 378.104 149.971 377.465 149.971V149.971Z" fill="#263238"/>
<path d="M337.534 149.971H307.385C306.746 149.971 306.133 149.72 305.681 149.272C305.229 148.824 304.975 148.217 304.975 147.583C304.975 146.95 305.229 146.342 305.681 145.894C306.133 145.446 306.746 145.195 307.385 145.195H337.534C338.173 145.195 338.786 145.446 339.238 145.894C339.689 146.342 339.943 146.95 339.943 147.583C339.943 148.217 339.689 148.824 339.238 149.272C338.786 149.72 338.173 149.971 337.534 149.971Z" fill="#263238"/>
<path d="M294.342 149.971H206.4C205.761 149.971 205.148 149.72 204.696 149.272C204.244 148.824 203.99 148.217 203.99 147.583C203.99 146.95 204.244 146.342 204.696 145.894C205.148 145.446 205.761 145.195 206.4 145.195H294.422C295.061 145.195 295.674 145.446 296.126 145.894C296.577 146.342 296.831 146.95 296.831 147.583C296.831 148.217 296.577 148.824 296.126 149.272C295.674 149.72 295.061 149.971 294.422 149.971H294.342Z" fill="#C4C4C4"/>
<path d="M236.469 134.257H206.4C205.761 134.257 205.148 134.006 204.696 133.558C204.244 133.11 203.99 132.502 203.99 131.869C203.99 131.235 204.244 130.628 204.696 130.18C205.148 129.732 205.761 129.48 206.4 129.48H236.549C237.188 129.48 237.801 129.732 238.253 130.18C238.704 130.628 238.958 131.235 238.958 131.869C238.958 132.502 238.704 133.11 238.253 133.558C237.801 134.006 237.188 134.257 236.549 134.257H236.469Z" fill="#263238"/>
<path d="M276.416 134.257H246.251C245.612 134.257 244.999 134.006 244.547 133.558C244.096 133.11 243.842 132.502 243.842 131.869C243.842 131.235 244.096 130.628 244.547 130.18C244.999 129.732 245.612 129.48 246.251 129.48H276.416C277.055 129.48 277.668 129.732 278.12 130.18C278.572 130.628 278.826 131.235 278.826 131.869C278.826 132.502 278.572 133.11 278.12 133.558C277.668 134.006 277.055 134.257 276.416 134.257V134.257Z" fill="#263238"/>
<path d="M377.465 134.257H289.443C288.804 134.257 288.191 134.006 287.739 133.558C287.287 133.11 287.033 132.502 287.033 131.869C287.033 131.235 287.287 130.628 287.739 130.18C288.191 129.732 288.804 129.48 289.443 129.48H377.465C378.104 129.48 378.717 129.732 379.169 130.18C379.621 130.628 379.875 131.235 379.875 131.869C379.875 132.502 379.621 133.11 379.169 133.558C378.717 134.006 378.104 134.257 377.465 134.257V134.257Z" fill="#C4C4C4"/>
<path d="M377.465 228.516H347.316C346.677 228.516 346.064 228.264 345.612 227.816C345.161 227.368 344.907 226.761 344.907 226.128C344.907 225.494 345.161 224.887 345.612 224.439C346.064 223.991 346.677 223.739 347.316 223.739H377.465C378.104 223.739 378.717 223.991 379.169 224.439C379.621 224.887 379.875 225.494 379.875 226.128C379.875 226.761 379.621 227.368 379.169 227.816C378.717 228.264 378.104 228.516 377.465 228.516V228.516Z" fill="#263238"/>
<path d="M337.534 228.516H307.385C306.746 228.516 306.133 228.264 305.681 227.816C305.229 227.368 304.975 226.761 304.975 226.128C304.975 225.494 305.229 224.887 305.681 224.439C306.133 223.991 306.746 223.739 307.385 223.739H337.534C338.173 223.739 338.786 223.991 339.238 224.439C339.689 224.887 339.943 225.494 339.943 226.128C339.943 226.761 339.689 227.368 339.238 227.816C338.786 228.264 338.173 228.516 337.534 228.516Z" fill="#263238"/>
<path d="M294.342 228.516H206.4C205.761 228.516 205.148 228.264 204.696 227.816C204.244 227.368 203.99 226.761 203.99 226.128C203.99 225.494 204.244 224.887 204.696 224.439C205.148 223.991 205.761 223.739 206.4 223.739H294.422C295.061 223.739 295.674 223.991 296.126 224.439C296.577 224.887 296.831 225.494 296.831 226.128C296.831 226.761 296.577 227.368 296.126 227.816C295.674 228.264 295.061 228.516 294.422 228.516H294.342Z" fill="#263238"/>
<path d="M377.465 259.947H347.316C346.677 259.947 346.064 259.695 345.612 259.248C345.161 258.8 344.907 258.192 344.907 257.559C344.907 256.925 345.161 256.318 345.612 255.87C346.064 255.422 346.677 255.17 347.316 255.17H377.465C378.104 255.17 378.717 255.422 379.169 255.87C379.621 256.318 379.875 256.925 379.875 257.559C379.875 258.192 379.621 258.8 379.169 259.248C378.717 259.695 378.104 259.947 377.465 259.947V259.947Z" fill="#263238"/>
<path d="M337.534 259.947H307.385C306.746 259.947 306.133 259.695 305.681 259.248C305.229 258.8 304.975 258.192 304.975 257.559C304.975 256.925 305.229 256.318 305.681 255.87C306.133 255.422 306.746 255.17 307.385 255.17H337.534C338.173 255.17 338.786 255.422 339.238 255.87C339.689 256.318 339.943 256.925 339.943 257.559C339.943 258.192 339.689 258.8 339.238 259.248C338.786 259.695 338.173 259.947 337.534 259.947Z" fill="#263238"/>
<path d="M294.342 259.947H206.4C205.761 259.947 205.148 259.695 204.696 259.248C204.244 258.8 203.99 258.192 203.99 257.559C203.99 256.925 204.244 256.318 204.696 255.87C205.148 255.422 205.761 255.17 206.4 255.17H294.422C295.061 255.17 295.674 255.422 296.126 255.87C296.577 256.318 296.831 256.925 296.831 257.559C296.831 258.192 296.577 258.8 296.126 259.248C295.674 259.695 295.061 259.947 294.422 259.947H294.342Z" fill="#C4C4C4"/>
<path d="M236.469 244.231H206.4C205.761 244.231 205.148 243.98 204.696 243.532C204.244 243.084 203.99 242.476 203.99 241.843C203.99 241.21 204.244 240.602 204.696 240.154C205.148 239.706 205.761 239.455 206.4 239.455H236.549C237.188 239.455 237.801 239.706 238.253 240.154C238.704 240.602 238.958 241.21 238.958 241.843C238.958 242.476 238.704 243.084 238.253 243.532C237.801 243.98 237.188 244.231 236.549 244.231H236.469Z" fill="#263238"/>
<path d="M276.416 244.231H246.251C245.612 244.231 244.999 243.98 244.547 243.532C244.096 243.084 243.842 242.476 243.842 241.843C243.842 241.21 244.096 240.602 244.547 240.154C244.999 239.706 245.612 239.455 246.251 239.455H276.416C277.055 239.455 277.668 239.706 278.12 240.154C278.572 240.602 278.826 241.21 278.826 241.843C278.826 242.476 278.572 243.084 278.12 243.532C277.668 243.98 277.055 244.231 276.416 244.231Z" fill="#263238"/>
<path d="M377.465 244.231H289.443C288.804 244.231 288.191 243.98 287.739 243.532C287.287 243.084 287.033 242.476 287.033 241.843C287.033 241.21 287.287 240.602 287.739 240.154C288.191 239.706 288.804 239.455 289.443 239.455H377.465C378.104 239.455 378.717 239.706 379.169 240.154C379.621 240.602 379.875 241.21 379.875 241.843C379.875 242.476 379.621 243.084 379.169 243.532C378.717 243.98 378.104 244.231 377.465 244.231V244.231Z" fill="#C4C4C4"/>
<path d="M236.469 278.432H206.4C205.761 278.432 205.148 278.181 204.696 277.733C204.244 277.285 203.99 276.678 203.99 276.044C203.99 275.411 204.244 274.803 204.696 274.355C205.148 273.907 205.761 273.656 206.4 273.656H236.549C237.188 273.656 237.801 273.907 238.253 274.355C238.704 274.803 238.958 275.411 238.958 276.044C238.958 276.678 238.704 277.285 238.253 277.733C237.801 278.181 237.188 278.432 236.549 278.432H236.469Z" fill="#263238"/>
<path d="M276.416 278.432H246.251C245.612 278.432 244.999 278.181 244.547 277.733C244.096 277.285 243.842 276.678 243.842 276.044C243.842 275.411 244.096 274.803 244.547 274.355C244.999 273.907 245.612 273.656 246.251 273.656H276.416C277.055 273.656 277.668 273.907 278.12 274.355C278.572 274.803 278.826 275.411 278.826 276.044C278.826 276.678 278.572 277.285 278.12 277.733C277.668 278.181 277.055 278.432 276.416 278.432Z" fill="#263238"/>
<path d="M377.465 278.432H289.443C288.804 278.432 288.191 278.181 287.739 277.733C287.287 277.285 287.033 276.678 287.033 276.044C287.033 275.411 287.287 274.803 287.739 274.355C288.191 273.907 288.804 273.656 289.443 273.656H377.465C378.104 273.656 378.717 273.907 379.169 274.355C379.621 274.803 379.875 275.411 379.875 276.044C379.875 276.678 379.621 277.285 379.169 277.733C378.717 278.181 378.104 278.432 377.465 278.432V278.432Z" fill="#C4C4C4"/>
<path d="M236.469 309.847H206.4C205.761 309.847 205.148 309.595 204.696 309.147C204.244 308.7 203.99 308.092 203.99 307.459C203.99 306.825 204.244 306.218 204.696 305.77C205.148 305.322 205.761 305.07 206.4 305.07H236.549C237.188 305.07 237.801 305.322 238.253 305.77C238.704 306.218 238.958 306.825 238.958 307.459C238.958 308.092 238.704 308.7 238.253 309.147C237.801 309.595 237.188 309.847 236.549 309.847H236.469Z" fill="#263238"/>
<path d="M276.416 309.847H246.251C245.612 309.847 244.999 309.595 244.547 309.147C244.096 308.7 243.842 308.092 243.842 307.459C243.842 306.825 244.096 306.218 244.547 305.77C244.999 305.322 245.612 305.07 246.251 305.07H276.416C277.055 305.07 277.668 305.322 278.12 305.77C278.572 306.218 278.826 306.825 278.826 307.459C278.826 308.092 278.572 308.7 278.12 309.147C277.668 309.595 277.055 309.847 276.416 309.847Z" fill="#263238"/>
<path d="M377.465 309.847H289.443C288.804 309.847 288.191 309.595 287.739 309.147C287.287 308.7 287.033 308.092 287.033 307.459C287.033 306.825 287.287 306.218 287.739 305.77C288.191 305.322 288.804 305.07 289.443 305.07H377.465C378.104 305.07 378.717 305.322 379.169 305.77C379.621 306.218 379.875 306.825 379.875 307.459C379.875 308.092 379.621 308.7 379.169 309.147C378.717 309.595 378.104 309.847 377.465 309.847V309.847Z" fill="#C4C4C4"/>
<path d="M377.465 294.131H347.316C346.677 294.131 346.064 293.88 345.612 293.432C345.161 292.984 344.907 292.376 344.907 291.743C344.907 291.109 345.161 290.502 345.612 290.054C346.064 289.606 346.677 289.354 347.316 289.354H377.465C378.104 289.354 378.717 289.606 379.169 290.054C379.621 290.502 379.875 291.109 379.875 291.743C379.875 292.376 379.621 292.984 379.169 293.432C378.717 293.88 378.104 294.131 377.465 294.131V294.131Z" fill="#263238"/>
<path d="M337.534 294.131H307.385C306.746 294.131 306.133 293.88 305.681 293.432C305.229 292.984 304.975 292.376 304.975 291.743C304.975 291.109 305.229 290.502 305.681 290.054C306.133 289.606 306.746 289.354 307.385 289.354H337.534C338.173 289.354 338.786 289.606 339.238 290.054C339.689 290.502 339.943 291.109 339.943 291.743C339.943 292.376 339.689 292.984 339.238 293.432C338.786 293.88 338.173 294.131 337.534 294.131V294.131Z" fill="#263238"/>
<path d="M294.342 294.131H206.4C205.761 294.131 205.148 293.88 204.696 293.432C204.244 292.984 203.99 292.376 203.99 291.743C203.99 291.109 204.244 290.502 204.696 290.054C205.148 289.606 205.761 289.354 206.4 289.354H294.422C295.061 289.354 295.674 289.606 296.126 290.054C296.577 290.502 296.831 291.109 296.831 291.743C296.831 292.376 296.577 292.984 296.126 293.432C295.674 293.88 295.061 294.131 294.422 294.131H294.342Z" fill="#C4C4C4"/>
<path d="M166.597 56.4609H156.976V67.2403H166.597V56.4609Z" fill="#263238"/>
<path d="M166.597 74.1812H156.976V84.9605H166.597V74.1812Z" fill="#263238"/>
<path d="M166.597 91.8872H156.976V102.667H166.597V91.8872Z" fill="#263238"/>
<path d="M166.597 109.608H156.976V120.388H166.597V109.608Z" fill="#263238"/>
<path d="M166.597 127.314H156.976V138.094H166.597V127.314Z" fill="#263238"/>
<path d="M166.597 145.035H156.976V155.815H166.597V145.035Z" fill="#263238"/>
<path d="M166.597 162.757H156.976V173.536H166.597V162.757Z" fill="#263238"/>
<path d="M166.597 180.463H156.976V191.242H166.597V180.463Z" fill="#263238"/>
<path d="M166.597 198.185H156.976V208.964H166.597V198.185Z" fill="#263238"/>
<path d="M166.597 215.889H156.976V226.669H166.597V215.889Z" fill="#263238"/>
<path d="M166.597 233.611H156.976V244.39H166.597V233.611Z" fill="#263238"/>
<path d="M166.597 251.317H156.976V262.096H166.597V251.317Z" fill="#263238"/>
<path d="M166.597 269.038H156.976V279.817H166.597V269.038Z" fill="#263238"/>
<path d="M166.597 286.744H156.976V297.524H166.597V286.744Z" fill="#263238"/>
<path d="M166.597 304.465H156.976V315.244H166.597V304.465Z" fill="#263238"/>
<path d="M166.597 322.186H156.976V332.965H166.597V322.186Z" fill="#263238"/>
<path d="M166.597 339.892H156.976V350.671H166.597V339.892Z" fill="#263238"/>
<path d="M166.597 357.614H156.976V368.394H166.597V357.614Z" fill="#263238"/>
<path d="M459.793 610.554C442.646 610.554 393.153 599.504 393.153 599.504H526.434C526.434 599.504 476.923 610.554 459.793 610.554Z" fill="#263238" stroke="#263238" stroke-linecap="round" stroke-linejoin="round"/>
<path d="M475.065 605.01H444.522V625.765H475.065V605.01Z" fill="#858585" stroke="#263238" stroke-linecap="round" stroke-linejoin="round"/>
<path d="M479.579 625.765H440.007V714.991H479.579V625.765Z" fill="#999999" stroke="#263238" stroke-linecap="round" stroke-linejoin="round"/>
<path d="M534.125 573.003H508.32C511.181 555.434 513.299 537.534 514.599 519.799H540.312C539.086 537.534 536.986 555.434 534.125 573.003Z" fill="#858585" stroke="#263238" stroke-linecap="round" stroke-linejoin="round"/>
<path d="M573.196 362.634H462.32C449.315 362.634 440.75 373.555 443.277 386.41C450.357 425.679 454.592 465.4 455.947 505.268C455.935 507.988 456.468 510.683 457.515 513.197C458.562 515.711 460.102 517.994 462.047 519.913C463.992 521.832 466.301 523.349 468.842 524.376C471.383 525.403 474.104 525.919 476.848 525.894H570.186C575.987 525.837 581.577 523.727 585.947 519.945C590.317 516.163 593.181 510.958 594.022 505.268C598.522 465.816 600.149 426.094 598.89 386.41C598.277 373.555 586.219 362.634 573.196 362.634Z" fill="#858585" stroke="#263238" stroke-linecap="round" stroke-linejoin="round"/>
<path d="M579.234 386.41C580.494 426.094 578.867 465.816 574.367 505.268C573.525 510.958 570.662 516.163 566.291 519.945C561.921 523.727 556.331 525.837 550.53 525.894H476.848C474.105 525.919 471.383 525.403 468.842 524.376C466.302 523.349 463.992 521.832 462.047 519.913C460.103 517.994 458.562 515.711 457.515 513.197C456.468 510.683 455.935 507.988 455.948 505.268C454.598 465.4 450.37 425.679 443.296 386.41C440.769 373.518 449.297 362.634 462.339 362.634H553.54C566.564 362.634 578.621 373.555 579.234 386.41Z" fill="#999999" stroke="#263238" stroke-linecap="round" stroke-linejoin="round"/>
<path d="M526.434 731.015C526.435 731.505 526.324 731.988 526.111 732.431C525.897 732.873 525.587 733.262 525.202 733.569C524.817 733.877 524.367 734.095 523.886 734.207C523.405 734.319 522.904 734.324 522.421 734.219C510.29 731.604 473.969 724.016 459.793 724.016C445.618 724.016 409.279 731.604 397.147 734.219C396.665 734.324 396.165 734.32 395.685 734.208C395.205 734.095 394.756 733.877 394.372 733.569C393.989 733.261 393.68 732.872 393.469 732.43C393.257 731.987 393.15 731.504 393.153 731.015C393.151 729.046 393.831 727.136 395.078 725.604C396.326 724.072 398.066 723.011 400.008 722.598C414.202 719.578 446.584 713.003 459.793 713.003C473.003 713.003 505.385 719.578 519.579 722.598C521.519 723.015 523.257 724.076 524.504 725.608C525.752 727.139 526.433 729.047 526.434 731.015V731.015Z" fill="#263238" stroke="#263238" stroke-linecap="round" stroke-linejoin="round"/>
<path d="M393.133 724.385C390.876 724.381 388.668 725.042 386.789 726.283C384.91 727.524 383.445 729.29 382.58 731.357C381.714 733.424 381.486 735.699 381.926 737.894C382.366 740.089 383.452 742.106 385.049 743.688C386.645 745.271 388.68 746.348 390.894 746.784C393.109 747.219 395.404 746.994 397.489 746.136C399.574 745.278 401.355 743.825 402.607 741.963C403.859 740.101 404.526 737.912 404.522 735.674C404.517 732.681 403.316 729.813 401.181 727.697C399.046 725.581 396.152 724.39 393.133 724.385V724.385ZM393.133 741.807C391.909 741.81 390.711 741.454 389.691 740.782C388.672 740.11 387.876 739.154 387.405 738.034C386.933 736.913 386.808 735.68 387.045 734.489C387.282 733.298 387.869 732.204 388.734 731.344C389.598 730.485 390.701 729.899 391.901 729.661C393.102 729.422 394.347 729.543 395.478 730.006C396.61 730.47 397.577 731.256 398.258 732.265C398.938 733.274 399.302 734.46 399.302 735.674C399.302 737.297 398.652 738.854 397.496 740.004C396.34 741.153 394.771 741.802 393.133 741.807Z" fill="#858585" stroke="#263238" stroke-linecap="round" stroke-linejoin="round"/>
<path d="M459.793 724.385C457.531 724.378 455.319 725.037 453.436 726.279C451.553 727.521 450.085 729.29 449.219 731.361C448.353 733.432 448.127 735.711 448.571 737.91C449.014 740.108 450.107 742.126 451.71 743.708C453.313 745.289 455.354 746.362 457.574 746.791C459.794 747.22 462.093 746.985 464.177 746.116C466.262 745.247 468.04 743.784 469.283 741.911C470.527 740.039 471.181 737.842 471.163 735.6C471.139 732.624 469.931 729.777 467.803 727.677C465.674 725.577 462.796 724.394 459.793 724.385ZM459.793 741.807C458.572 741.81 457.377 741.455 456.359 740.787C455.341 740.118 454.545 739.166 454.072 738.05C453.598 736.934 453.469 735.704 453.7 734.516C453.93 733.327 454.511 732.232 455.368 731.37C456.225 730.508 457.32 729.916 458.516 729.67C459.711 729.423 460.954 729.533 462.087 729.986C463.219 730.438 464.192 731.212 464.881 732.212C465.571 733.211 465.946 734.39 465.961 735.6C465.971 736.41 465.819 737.214 465.513 737.966C465.208 738.717 464.756 739.401 464.182 739.978C463.609 740.555 462.925 741.014 462.172 741.328C461.419 741.641 460.61 741.804 459.793 741.807Z" fill="#858585" stroke="#263238" stroke-linecap="round" stroke-linejoin="round"/>
<path d="M525.041 724.385C522.784 724.385 520.578 725.048 518.701 726.292C516.825 727.535 515.363 729.302 514.5 731.369C513.637 733.437 513.412 735.711 513.854 737.905C514.296 740.099 515.384 742.114 516.981 743.695C518.578 745.275 520.613 746.351 522.827 746.785C525.041 747.219 527.335 746.993 529.419 746.134C531.503 745.275 533.283 743.823 534.534 741.961C535.786 740.099 536.452 737.911 536.448 735.674C536.448 734.19 536.153 732.72 535.579 731.349C535.006 729.979 534.165 728.733 533.106 727.685C532.046 726.636 530.788 725.805 529.405 725.239C528.021 724.673 526.538 724.382 525.041 724.385V724.385ZM525.041 741.807C523.817 741.807 522.621 741.447 521.604 740.773C520.586 740.099 519.793 739.141 519.325 738.021C518.857 736.9 518.734 735.667 518.973 734.478C519.212 733.288 519.801 732.195 520.666 731.338C521.531 730.48 522.634 729.896 523.834 729.659C525.034 729.423 526.278 729.544 527.408 730.008C528.539 730.472 529.505 731.258 530.185 732.267C530.864 733.275 531.227 734.461 531.227 735.674C531.227 737.3 530.576 738.86 529.415 740.01C528.255 741.16 526.681 741.807 525.041 741.807Z" fill="#858585" stroke="#263238" stroke-linecap="round" stroke-linejoin="round"/>
<path d="M493.568 569.43C449.087 570.83 404.563 568.878 360.38 563.592C358.34 563.227 356.244 563.318 354.245 563.857C352.245 564.397 350.392 565.371 348.821 566.71C347.249 568.049 345.999 569.719 345.16 571.598C344.322 573.476 343.917 575.517 343.975 577.57V579.725C344.083 584.25 345.781 588.595 348.776 592.011C351.771 595.427 355.875 597.699 360.38 598.436C404.564 603.712 449.087 605.664 493.568 604.274V569.43Z" fill="#999999" stroke="#263238" stroke-linecap="round" stroke-linejoin="round"/>
<path d="M563.424 597.865C535.816 601.29 508.45 603.556 480.657 604.734C479.056 604.784 477.461 604.513 475.968 603.937C474.475 603.361 473.115 602.493 471.968 601.384C470.822 600.275 469.913 598.948 469.296 597.483C468.679 596.017 468.366 594.444 468.377 592.856V582.266C468.409 579.031 469.708 575.934 471.999 573.629C474.29 571.324 477.394 569.99 480.657 569.909C508.525 568.712 535.816 566.447 563.424 563.021C564.936 562.74 566.492 562.798 567.979 563.192C569.465 563.585 570.844 564.304 572.013 565.295C573.182 566.286 574.112 567.524 574.735 568.919C575.358 570.313 575.657 571.829 575.611 573.353V583.942C575.521 587.303 574.257 590.529 572.034 593.068C569.811 595.608 566.768 597.303 563.424 597.865V597.865Z" fill="#858585" stroke="#263238" stroke-linecap="round" stroke-linejoin="round"/>
<path d="M378.587 741.124C378.587 734.973 377.231 722.708 369.911 706.778L360.38 672.708L330.655 685.286L339.015 711.382C339.015 711.382 313.469 723.463 304.032 726.723C297.752 728.896 278.951 733.169 279.88 741.161C279.88 741.725 279.992 742.283 280.209 742.803C280.427 743.324 280.746 743.797 281.148 744.195C281.55 744.594 282.027 744.91 282.552 745.126C283.077 745.341 283.64 745.452 284.208 745.452H374.24C374.813 745.455 375.381 745.344 375.91 745.127C376.44 744.911 376.921 744.592 377.326 744.189C377.73 743.786 378.05 743.308 378.266 742.782C378.483 742.256 378.592 741.693 378.587 741.124V741.124Z" fill="#FFBE9D" stroke="#263238" stroke-linecap="round" stroke-linejoin="round"/>
<path d="M362.219 721.181C357.575 724.569 332.81 728.86 339.015 723.943C345.22 719.026 339.015 711.365 339.015 711.365C339.015 711.365 313.469 723.446 304.032 726.706C297.752 728.879 278.951 733.151 279.88 741.144C279.88 741.707 279.992 742.265 280.209 742.786C280.427 743.307 280.746 743.78 281.148 744.178C281.55 744.576 282.027 744.893 282.552 745.108C283.077 745.324 283.64 745.435 284.208 745.435H374.24C374.812 745.437 375.379 745.327 375.908 745.11C376.436 744.893 376.916 744.573 377.319 744.17C377.722 743.768 378.04 743.289 378.255 742.763C378.469 742.237 378.576 741.674 378.568 741.107C378.264 731.778 376.341 722.57 372.883 713.888C367.774 713.943 366.864 717.81 362.219 721.181Z" fill="#E8AA42" stroke="#263238" stroke-linecap="round" stroke-linejoin="round"/>
<path d="M400.082 745.435H466.036C466.695 745.434 467.334 745.205 467.843 744.789C468.351 744.372 468.697 743.793 468.822 743.151C469.826 737.958 469.603 726.337 463.658 710.904L463.063 679.597L429.288 685.287L433.561 711.991C433.561 711.991 419.961 726.834 413.496 729.486C408.963 731.328 398.633 731.549 397.258 742.378C397.222 742.766 397.268 743.158 397.394 743.528C397.519 743.898 397.722 744.238 397.988 744.526C398.253 744.814 398.577 745.043 398.938 745.2C399.299 745.356 399.688 745.436 400.082 745.435Z" fill="#FFBE9D" stroke="#263238" stroke-linecap="round" stroke-linejoin="round"/>
<path d="M452.585 721.309C445.618 726.134 440.472 726.705 443.723 719.468C446.974 712.23 433.635 711.972 433.635 711.972C433.635 711.972 420.035 726.816 413.57 729.468C409.037 731.309 398.707 731.53 397.333 742.359C397.285 742.754 397.323 743.154 397.443 743.532C397.564 743.911 397.764 744.26 398.031 744.557C398.299 744.853 398.626 745.089 398.993 745.25C399.359 745.411 399.756 745.493 400.157 745.49H466.11C466.77 745.489 467.408 745.261 467.917 744.844C468.425 744.427 468.772 743.848 468.897 743.206C469.9 738.013 469.677 726.392 463.732 710.959C458.567 712.138 459.496 716.466 452.585 721.309Z" fill="#E8AA42" stroke="#263238" stroke-linecap="round" stroke-linejoin="round"/>
<path d="M393.524 506.336C393.524 506.336 386.873 513.077 359.693 517.386C332.513 521.696 276.09 535.176 276.777 557.276C277.465 579.375 329.429 697.239 329.429 697.239C329.429 697.239 355.438 692.341 367.514 684.974C367.514 684.974 346.576 600.867 330.878 578.768C330.878 578.768 401.346 570.167 440.323 554.219C479.301 538.27 456.375 501.917 456.375 501.917L393.524 506.336Z" fill="#263238" stroke="#263238" stroke-linecap="round" stroke-linejoin="round"/>
<path d="M437.722 503.224C437.722 503.224 447.717 519.798 440.249 529.007C432.78 538.215 390.366 555.397 395.159 576.281C399.952 597.165 415.781 626.613 426.092 696.594C426.092 696.594 450.114 692.911 466.203 686.152C466.203 686.152 468.878 614.955 450.207 584.255C450.207 584.255 503.675 574.439 509.1 556.631C514.525 538.822 504.381 511.603 504.177 501.879L437.722 503.224Z" fill="#263238" stroke="#263238" stroke-linecap="round" stroke-linejoin="round"/>
<path d="M405.581 529.596C404.344 529.503 403.102 529.503 401.865 529.596" stroke="#7F7F7F" stroke-width="0.75" stroke-linecap="round" stroke-linejoin="round"/>
<path d="M407.996 518.601C407.996 518.601 418.976 521.805 423.286 536.004C423.342 536.238 423.323 536.482 423.231 536.704C423.139 536.926 422.978 537.113 422.773 537.239C422.567 537.366 422.327 537.425 422.086 537.408C421.844 537.391 421.614 537.3 421.429 537.146C418.485 534.145 414.861 531.884 410.857 530.553" stroke="#7F7F7F" stroke-width="0.75" stroke-linecap="round" stroke-linejoin="round"/>
<path d="M325.713 577.994C325.713 572.009 299.703 568.786 306.67 563.261C313.637 557.736 329.428 575.692 329.428 575.692" stroke="#7F7F7F" stroke-width="0.75" stroke-linecap="round" stroke-linejoin="round"/>
<path d="M453.514 601.934C453.514 595.083 428.656 591.345 429.9 583.978C431.145 576.612 446.937 591.124 446.937 591.124" stroke="#7F7F7F" stroke-width="0.75" stroke-linecap="round" stroke-linejoin="round"/>
<path d="M326.679 697.663L329.41 703.924C329.56 704.271 329.829 704.554 330.168 704.726C330.507 704.897 330.896 704.946 331.267 704.864C337.268 703.519 362.312 697.663 371.1 691.401C371.355 691.216 371.548 690.959 371.654 690.663C371.76 690.368 371.774 690.047 371.694 689.744L369.985 682.764C369.927 682.523 369.814 682.298 369.655 682.108C369.495 681.918 369.293 681.766 369.064 681.666C368.835 681.567 368.586 681.521 368.337 681.532C368.087 681.543 367.844 681.612 367.625 681.733C363.668 683.869 352.651 688.97 327.775 695.453C327.548 695.514 327.336 695.622 327.155 695.77C326.973 695.918 326.826 696.103 326.722 696.312C326.618 696.521 326.561 696.75 326.553 696.983C326.546 697.216 326.588 697.448 326.679 697.663V697.663Z" fill="#999999" stroke="#263238" stroke-linecap="round" stroke-linejoin="round"/>
<path d="M423.138 692.506C423.106 692.29 423.131 692.07 423.211 691.866C423.29 691.663 423.421 691.483 423.591 691.344C423.761 691.205 423.964 691.112 424.181 691.074C424.397 691.036 424.62 691.053 424.828 691.125C427.847 692.058 431.074 692.103 434.117 691.254C441.01 689.707 460.722 683.519 466.593 681.659C466.785 681.598 466.99 681.583 467.189 681.615C467.389 681.648 467.578 681.726 467.741 681.845C467.904 681.963 468.036 682.118 468.127 682.297C468.218 682.476 468.265 682.674 468.265 682.874V691.014C468.267 691.261 468.196 691.502 468.06 691.708C467.925 691.915 467.731 692.077 467.503 692.175C462.895 694.219 438.205 704.698 425.293 701.843C425.041 701.785 424.813 701.651 424.64 701.46C424.467 701.269 424.358 701.03 424.327 700.775L423.138 692.506Z" fill="#999999" stroke="#263238" stroke-linecap="round" stroke-linejoin="round"/>
<path d="M443.017 521.971C442.838 524.517 441.9 526.952 440.323 528.969C434.861 535.691 410.839 546.649 400.082 560.277" stroke="#7F7F7F" stroke-linecap="round" stroke-linejoin="round"/>
<path d="M441.847 512.763C442.263 514.12 442.579 515.505 442.794 516.907" stroke="#7F7F7F" stroke-linecap="round" stroke-linejoin="round"/>
<path d="M299.573 730.849C301.089 733.588 302.185 736.537 302.824 739.596H369.911C370.159 736.699 371.483 733.995 373.627 732.009" stroke="#263238" stroke-linecap="round" stroke-linejoin="round"/>
<path d="M416.153 730.849C416.153 730.849 425.442 731.548 428.916 739.596H463.992C465.05 737.193 465.679 734.626 465.85 732.009" stroke="#263238" stroke-linecap="round" stroke-linejoin="round"/>
<path d="M361.16 402.266C362.015 405.507 362.907 408.73 363.799 411.879C373.088 445.028 385.164 508.104 385.164 508.104C444.615 520.535 507.317 508.104 507.317 508.104C507.651 494.366 505.961 476.226 504.084 457.165C513.819 454.494 520.805 445.581 521.251 430.756C521.715 412.8 518.427 380.479 516.606 365.378C514.99 352.1 516.142 344.199 495.39 334.071C484.986 328.122 467.708 325.304 446.473 322.487C404.671 316.962 374.5 325.341 363.799 329.853C355.308 327.643 352.949 337.514 352.949 337.514C348.248 333.997 342.786 348.914 342.786 348.914C329.038 366.299 318.226 395.581 314.621 406.004C313.824 408.283 312.363 410.276 310.423 411.732C300.669 419.098 306.094 428.214 306.094 428.214L326.066 434.273C326.066 434.273 335.745 436.778 343.139 424.163C349.307 413.629 359.414 395.747 361.16 402.266Z" fill="#E8AA42"/>
<path opacity="0.3" d="M329.744 425.968C329.744 425.968 329.28 416.76 321.848 415.158C314.417 413.555 323.929 410.793 329.744 412.174C335.559 413.555 334.203 408.491 339.182 400.204C344.161 391.916 346.614 385.36 350.812 390.13C355.011 394.9 359.377 395.655 361.16 402.174C362.944 408.693 354.119 424.274 354.119 424.274L340.26 434.937L333.218 438.841H322.722L319.117 429.835L329.744 425.968Z" fill="black"/>
<path d="M361.16 402.266C362.015 405.507 362.907 408.73 363.799 411.879C373.088 445.028 385.164 508.104 385.164 508.104C444.615 520.535 507.317 508.104 507.317 508.104C507.651 494.366 505.961 476.226 504.084 457.165C513.819 454.494 520.805 445.581 521.251 430.756C521.715 412.8 518.427 380.479 516.606 365.378C514.99 352.1 516.142 344.199 495.39 334.071C484.986 328.122 467.708 325.304 446.473 322.487C404.671 316.962 374.5 325.341 363.799 329.853C355.308 327.643 352.949 337.514 352.949 337.514C348.248 333.997 342.786 348.914 342.786 348.914C329.038 366.299 318.226 395.581 314.621 406.004C313.824 408.283 312.363 410.276 310.423 411.732C300.669 419.098 306.094 428.214 306.094 428.214L326.066 434.273C326.066 434.273 335.745 436.778 343.139 424.163C349.307 413.629 359.414 395.747 361.16 402.266Z" stroke="#263238" stroke-linecap="round" stroke-linejoin="round"/>
<path opacity="0.3" d="M507.317 508.012C507.364 496.179 506.775 484.351 505.552 472.579C507.577 500.627 448.665 509.412 446.807 494.2C444.949 478.988 504.084 457.073 471.906 464.734C443.834 471.419 389.418 465.029 376.042 463.298C381.188 487.239 385.164 508.012 385.164 508.012C444.615 520.443 507.317 508.012 507.317 508.012Z" fill="black"/>
<path opacity="0.3" d="M480.303 367.128C480.303 367.128 471.887 391.53 471.906 404.421C471.925 417.313 448.33 425.968 448.274 425.968C460.926 423.427 473.225 420.057 479.096 418.362C480.107 418.079 480.987 417.455 481.584 416.598C482.181 415.741 482.457 414.704 482.366 413.666C480.866 398.199 480.178 382.666 480.303 367.128V367.128Z" fill="black"/>
<path d="M353.376 360.995C353.456 372.493 355.549 383.89 359.562 394.678C359.679 394.995 359.69 395.34 359.596 395.663C359.501 395.986 359.305 396.271 359.035 396.477C358.766 396.682 358.438 396.797 358.099 396.805C357.759 396.812 357.426 396.713 357.147 396.52C353.952 394.255 349.437 389.651 345.368 380.369" stroke="#263238" stroke-width="0.75" stroke-linecap="round" stroke-linejoin="round"/>
<path d="M511.032 436.189C506.127 420.074 497.637 416.041 491.06 415.636C490.857 415.607 490.667 415.52 490.514 415.384C490.361 415.249 490.252 415.072 490.2 414.875C490.149 414.678 490.157 414.47 490.224 414.278C490.291 414.086 490.414 413.918 490.577 413.795C494.404 411.75 501.854 410.111 511.014 420.167" stroke="#263238" stroke-width="0.75" stroke-linecap="round" stroke-linejoin="round"/>
<path d="M416.784 390.075C416.705 390.753 416.378 391.378 415.864 391.832C415.35 392.286 414.686 392.536 413.997 392.536C413.309 392.536 412.645 392.286 412.131 391.832C411.617 391.378 411.29 390.753 411.211 390.075C411.165 389.685 411.203 389.291 411.323 388.917C411.442 388.543 411.64 388.198 411.903 387.906C412.166 387.613 412.489 387.378 412.85 387.218C413.211 387.058 413.602 386.975 413.997 386.975C414.393 386.975 414.784 387.058 415.145 387.218C415.506 387.378 415.829 387.613 416.092 387.906C416.355 388.198 416.553 388.543 416.672 388.917C416.792 389.291 416.83 389.685 416.784 390.075Z" fill="#999999" stroke="#263238" stroke-width="0.75" stroke-linecap="round" stroke-linejoin="round"/>
<path d="M420.555 421.419C420.555 421.965 420.392 422.499 420.086 422.953C419.779 423.408 419.344 423.762 418.835 423.971C418.326 424.18 417.765 424.235 417.225 424.128C416.684 424.021 416.188 423.758 415.798 423.372C415.408 422.986 415.143 422.493 415.035 421.958C414.928 421.422 414.983 420.866 415.194 420.362C415.405 419.857 415.762 419.425 416.22 419.122C416.678 418.818 417.217 418.656 417.768 418.656C418.508 418.656 419.216 418.947 419.739 419.465C420.262 419.983 420.555 420.686 420.555 421.419Z" fill="#999999" stroke="#263238" stroke-width="0.75" stroke-linecap="round" stroke-linejoin="round"/>
<path d="M429.901 496.962C429.905 497.513 429.743 498.052 429.437 498.512C429.131 498.972 428.694 499.331 428.182 499.544C427.67 499.758 427.105 499.815 426.56 499.71C426.014 499.605 425.513 499.342 425.119 498.953C424.724 498.565 424.455 498.07 424.346 497.53C424.236 496.99 424.29 496.43 424.502 495.921C424.714 495.411 425.073 494.976 425.535 494.67C425.997 494.363 426.54 494.2 427.096 494.2C427.836 494.2 428.547 494.49 429.073 495.008C429.598 495.525 429.896 496.228 429.901 496.962V496.962Z" fill="#999999" stroke="#263238" stroke-linecap="round" stroke-linejoin="round"/>
<path d="M376.543 441.953C376.543 441.953 367.421 450.572 371.769 450.719C376.116 450.866 381.597 444.936 386.631 444.255C391.666 443.574 383.529 440.572 383.529 440.572L376.543 441.953Z" fill="#FFBE9D" stroke="#263238" stroke-linecap="round" stroke-linejoin="round"/>
<path d="M429.807 432.247C429.399 431.884 428.919 431.608 428.398 431.437C427.877 431.266 427.326 431.203 426.779 431.253C422.32 431.621 409.501 432.579 404.671 432.284C396.087 431.75 370.802 426.446 370.802 426.446C370.22 426.348 369.624 426.379 369.056 426.538L353.394 431.105C352.824 431.269 352.302 431.566 351.871 431.971L342.396 440.59C342.085 440.878 341.821 441.214 341.616 441.584L339.646 445.157C339.24 445.891 339.087 446.736 339.211 447.565C339.335 448.393 339.729 449.158 340.334 449.743V449.743L355.977 450.148C356.943 450.193 357.89 449.863 358.615 449.227L363.259 445.286C363.569 445.019 363.838 444.709 364.058 444.365C365.192 442.523 369.632 436.446 376.506 436.999C376.506 436.999 361.643 444.825 364.448 448.048C367.254 451.271 378.624 442.063 382.339 442.984C386.055 443.905 386.297 452.947 406.491 449.669C407.394 449.518 408.32 449.562 409.204 449.798L427.597 454.899C428.142 455.049 428.712 455.089 429.273 455.018C429.834 454.947 430.376 454.765 430.865 454.484C431.355 454.202 431.783 453.827 432.125 453.38C432.466 452.933 432.714 452.422 432.854 451.879C434.285 446.649 435.548 437.441 429.807 432.247Z" fill="#FFBE9D" stroke="#263238" stroke-linecap="round" stroke-linejoin="round"/>
<path d="M372.995 429.743L369.056 430.406C367.136 430.728 365.342 431.569 363.873 432.837L359.693 436.391C358.981 437.026 358.357 437.75 357.835 438.546L355.141 442.616C354.849 443.065 354.52 443.491 354.157 443.886C352.559 445.728 348.156 450.829 352.912 450.129" fill="#FFBE9D"/>
<path d="M372.995 429.743L369.056 430.406C367.136 430.728 365.342 431.569 363.873 432.837L359.693 436.391C358.981 437.026 358.357 437.75 357.835 438.546L355.141 442.616C354.849 443.065 354.52 443.491 354.157 443.886C352.559 445.728 348.156 450.829 352.912 450.129" stroke="#263238" stroke-linecap="round" stroke-linejoin="round"/>
<path d="M361.904 431.124L357.835 432.229C356.564 432.537 355.398 433.172 354.454 434.071L351.277 437.091C350.964 437.366 350.684 437.675 350.441 438.012L345.22 444.881C345.22 444.881 342.433 449.743 345.22 449.835" fill="#FFBE9D"/>
<path d="M361.904 431.124L357.835 432.229C356.564 432.537 355.398 433.172 354.454 434.071L351.277 437.091C350.964 437.366 350.684 437.675 350.441 438.012L345.22 444.881C345.22 444.881 342.433 449.743 345.22 449.835" stroke="#263238" stroke-linecap="round" stroke-linejoin="round"/>
<path d="M480.452 363.223C480.057 380.059 480.678 396.903 482.31 413.665C482.402 414.703 482.125 415.74 481.528 416.597C480.931 417.454 480.051 418.078 479.04 418.361C464.269 422.691 449.225 426.044 434.006 428.398" stroke="#263238" stroke-linecap="round" stroke-linejoin="round"/>
<path d="M481.344 351.806C481.103 353.648 480.898 355.655 480.75 357.699" stroke="#263238" stroke-width="0.75" stroke-linecap="round" stroke-linejoin="round"/>
<path d="M487.568 334.568C485.45 336.409 483.852 339.743 482.756 344.163" stroke="#263238" stroke-width="0.75" stroke-linecap="round" stroke-linejoin="round"/>
<path d="M394.546 323.629C394.546 323.629 395.716 319.945 401.977 317.864C408.238 315.783 429.956 312.487 441.122 317.864C452.287 323.242 430.904 352.505 430.904 352.505L421.001 366.097L412.177 372.653L408.238 360.995L403.129 355.728C403.129 355.728 392.093 346.76 393.022 337.901C393.951 329.043 394.546 323.629 394.546 323.629Z" fill="#FFBE9D"/>
<path d="M449.37 322.855C447.624 316.796 439.654 315.102 439.654 315.102C401.568 308.656 393.524 322.468 393.524 322.468C388.853 334.944 388.853 348.666 393.524 361.142C393.524 361.142 404.355 356.685 406.213 361.142C408.071 365.599 411.47 375.102 411.47 375.102C416.641 372.213 421.151 368.294 424.717 363.592C430.606 355.912 444.428 363.592 444.428 363.592C453.383 348.251 449.37 322.855 449.37 322.855ZM440.081 322.413C425.33 368.306 412.325 370.295 412.325 370.295C407.996 353.426 404.28 357.109 398.391 346.556C393.672 338.085 395.27 327.367 396.087 323.444C396.183 322.976 396.383 322.535 396.672 322.153C396.962 321.77 397.333 321.457 397.759 321.234C412.399 313.868 430.309 316.575 437.685 318.177C438.141 318.271 438.572 318.459 438.95 318.729C439.328 319 439.644 319.346 439.877 319.746C440.111 320.146 440.256 320.59 440.304 321.05C440.352 321.51 440.301 321.974 440.155 322.413H440.081Z" fill="#E8AA42"/>
<path opacity="0.4" d="M449.37 322.855C447.624 316.796 439.654 315.102 439.654 315.102C401.568 308.656 393.524 322.468 393.524 322.468C388.853 334.944 388.853 348.666 393.524 361.142C393.524 361.142 404.355 356.685 406.213 361.142C408.071 365.599 411.47 375.102 411.47 375.102C416.641 372.213 421.151 368.294 424.717 363.592C430.606 355.912 444.428 363.592 444.428 363.592C453.383 348.251 449.37 322.855 449.37 322.855ZM440.081 322.413C425.33 368.306 412.325 370.295 412.325 370.295C407.996 353.426 404.28 357.109 398.391 346.556C393.672 338.085 395.27 327.367 396.087 323.444C396.183 322.976 396.383 322.535 396.672 322.153C396.962 321.77 397.333 321.457 397.759 321.234C412.399 313.868 430.309 316.575 437.685 318.177C438.141 318.271 438.572 318.459 438.95 318.729C439.328 319 439.644 319.346 439.877 319.746C440.111 320.146 440.256 320.59 440.304 321.05C440.352 321.51 440.301 321.974 440.155 322.413H440.081Z" fill="#FFBE9D"/>
<path d="M449.37 322.855C447.624 316.796 439.654 315.102 439.654 315.102C401.568 308.656 393.524 322.468 393.524 322.468C388.853 334.944 388.853 348.666 393.524 361.142C393.524 361.142 404.355 356.685 406.213 361.142C408.071 365.599 411.47 375.102 411.47 375.102C416.641 372.213 421.151 368.294 424.717 363.592C430.606 355.912 444.428 363.592 444.428 363.592C453.383 348.251 449.37 322.855 449.37 322.855ZM440.081 322.413C425.33 368.306 412.325 370.295 412.325 370.295C407.996 353.426 404.28 357.109 398.391 346.556C393.672 338.085 395.27 327.367 396.087 323.444C396.183 322.976 396.383 322.535 396.672 322.153C396.962 321.77 397.333 321.457 397.759 321.234C412.399 313.868 430.309 316.575 437.685 318.177C438.141 318.271 438.572 318.459 438.95 318.729C439.328 319 439.644 319.346 439.877 319.746C440.111 320.146 440.256 320.59 440.304 321.05C440.352 321.51 440.301 321.974 440.155 322.413H440.081Z" stroke="#263238" stroke-linecap="round" stroke-linejoin="round"/>
<path d="M387.188 252.726C387.188 252.726 354.36 259.245 372.437 280.35C392.483 303.868 387.188 252.726 387.188 252.726Z" fill="#263238" stroke="#263238" stroke-linecap="round" stroke-linejoin="round"/>
<path d="M374.24 304.365C374.24 304.365 366.437 273.057 381.299 258.011C396.162 242.965 412.27 239.908 424.346 247.275C436.422 254.641 441.438 273.057 439.58 282.56C437.722 292.063 438.614 326.133 422.061 340.258C405.507 354.384 395.326 350.903 384.383 331.658C377.119 319.043 373.682 315.415 374.24 304.365Z" fill="#FFBE9D" stroke="#263238" stroke-linecap="round" stroke-linejoin="round"/>
<path d="M431.777 298.232C431.777 298.232 419.292 285.949 415.465 271.529C411.638 257.109 409.483 254.641 395.233 261.695C380.984 268.748 358.764 259.264 364.579 241.437C370.691 222.726 389.362 246.962 407.309 240.829C425.256 234.696 438.019 245.746 438.038 262.008C438.038 262.008 448.888 272.45 438.038 299.448L431.777 298.232Z" fill="#263238" stroke="#263238" stroke-linecap="round" stroke-linejoin="round"/>
<path d="M427.857 296.17C427.857 296.17 431.015 279.006 439.784 280.59C448.553 282.174 442.292 307.515 431.963 304.752" fill="#FFBE9D"/>
<path d="M427.857 296.17C427.857 296.17 431.015 279.006 439.784 280.59C448.553 282.174 442.292 307.515 431.963 304.752" stroke="#263238" stroke-linecap="round" stroke-linejoin="round"/>
<path d="M386.111 301.989C386.111 301.989 382.655 317.919 383.789 320.644C384.922 323.37 395.53 321.289 395.53 321.289" fill="#FFBE9D"/>
<path d="M386.111 301.989C386.111 301.989 382.655 317.919 383.789 320.644C384.922 323.37 395.53 321.289 395.53 321.289" stroke="#263238" stroke-linecap="round" stroke-linejoin="round"/>
<path d="M397.016 328.232C397.016 328.232 405.339 331.492 412.678 320.645Z" fill="#FFBE9D"/>
<path d="M397.016 328.232C397.016 328.232 405.339 331.492 412.678 320.645" stroke="#263238" stroke-linecap="round" stroke-linejoin="round"/>
<path d="M380.408 303.314C380.705 304.788 380.315 306.132 379.535 306.298C378.754 306.464 377.844 305.395 377.528 303.904C377.212 302.412 377.528 301.086 378.401 300.92C379.274 300.755 380.129 301.823 380.408 303.314Z" fill="#263238"/>
<path d="M400.769 301.695C401.085 303.169 400.77 304.513 399.896 304.679C399.023 304.844 398.224 303.758 397.908 302.285C397.593 300.811 397.908 299.467 398.782 299.301C399.655 299.135 400.565 300.204 400.769 301.695Z" fill="#263238"/>
<path d="M384.681 302.615C385.108 306.795 380.965 310.626 375.243 311.178C369.521 311.731 364.69 308.821 364.263 304.641C363.836 300.46 368.276 298.637 373.924 298.066C379.571 297.495 384.272 298.453 384.681 302.615Z" stroke="#263238" stroke-linecap="round" stroke-linejoin="round"/>
<path d="M410.969 300.019C411.396 304.181 407.16 308.03 401.531 308.582C395.902 309.135 390.978 306.207 390.551 302.045C390.124 297.883 394.564 296.022 400.212 295.47C405.86 294.917 410.56 295.838 410.969 300.019Z" stroke="#263238" stroke-linecap="round" stroke-linejoin="round"/>
<path d="M384.68 302.616L390.551 302.045" stroke="#263238" stroke-linecap="round" stroke-linejoin="round"/>
<path d="M410.263 297.919L431.851 285.304" stroke="#263238" stroke-linecap="round" stroke-linejoin="round"/>
<path d="M435.548 317.569L436.57 320.018" stroke="#263238" stroke-linecap="round" stroke-linejoin="round"/>
<path d="M372.511 295.894C372.511 295.894 375.8 291.75 379.831 293.739Z" fill="#FFBE9D"/>
<path d="M372.511 295.894C372.511 295.894 375.8 291.75 379.831 293.739" stroke="#263238" stroke-linecap="round" stroke-linejoin="round"/>
<path d="M406.139 294.033C406.139 294.033 400.361 288.508 394.787 292.413Z" fill="#FFBE9D"/>
<path d="M406.139 294.033C406.139 294.033 400.361 288.508 394.787 292.413" stroke="#263238" stroke-linecap="round" stroke-linejoin="round"/>
<path d="M379.813 243.517C388.601 246.28 403.389 249.668 415.465 246.04C434.043 240.515 427.671 261.141 431.851 266.832" stroke="#7F7F7F" stroke-linecap="round" stroke-linejoin="round"/>
<path d="M372.196 240.756C372.196 240.756 373.663 241.4 376.171 242.284" stroke="#7F7F7F" stroke-linecap="round" stroke-linejoin="round"/>
<path d="M394.397 253.776C395.382 253.481 396.403 253.131 397.481 252.726" stroke="#7F7F7F" stroke-linecap="round" stroke-linejoin="round"/>
<path d="M374.24 251.344C374.24 251.344 378.178 257.366 390.849 254.696" stroke="#7F7F7F" stroke-linecap="round" stroke-linejoin="round"/>
<path d="M421.429 263.15C422.409 270.259 425.112 277.026 429.306 282.874" stroke="#7F7F7F" stroke-linecap="round" stroke-linejoin="round"/>
<path d="M421.002 256.629C420.976 257.729 421.014 258.83 421.113 259.926" stroke="#7F7F7F" stroke-linecap="round" stroke-linejoin="round"/>
<path opacity="0.3" d="M437.462 454.2C437.123 454.481 436.879 454.859 436.764 455.282C436.648 455.705 436.667 456.152 436.817 456.565C436.967 456.977 437.241 457.333 437.603 457.585C437.964 457.838 438.395 457.974 438.837 457.975C451.396 457.975 485.283 458.123 498.288 457.368C514.544 456.447 502.133 438.951 488.998 445.618C477.09 451.788 451.749 441.511 437.462 454.2Z" fill="black"/>
<path d="M295.987 436.925C295.987 436.925 303.586 416.869 322.647 420.055C341.709 423.241 327.143 439.061 317.965 440.461C317.965 440.461 316.572 434.954 295.987 436.925Z" fill="#FFBE9D" stroke="#263238" stroke-linecap="round" stroke-linejoin="round"/>
<path d="M279.805 448.307C277.297 450.793 271.259 451.014 275.328 445.618C278.656 441.277 283.169 437.973 288.333 436.097C297.362 432.1 300.892 432.911 309.066 431.124C317.241 429.338 318.783 432.653 321.607 434.181C328.351 437.865 329.967 438.491 331.676 442.174C333.385 445.857 335.243 450.645 329.967 450.645C325.174 450.645 324.858 442.782 320.213 443.095C315.569 443.408 313.246 450.645 309.995 450.645H308.769C305.982 450.645 305.834 448.343 307.524 444.734C309.215 441.124 311.091 437.865 311.091 437.865C308.333 439.304 306.127 441.601 304.812 444.402C302.582 449.099 302.174 451.069 298.068 451.069C293.962 451.069 294.352 448.049 298.328 441.382C295.967 442.784 294.014 444.77 292.662 447.146C290.655 450.83 289.596 450.645 286.977 450.645C283.521 450.645 283.762 445.01 289.875 441.327C289.912 441.327 288.556 439.669 279.805 448.307Z" fill="#FFBE9D" stroke="#263238" stroke-linecap="round" stroke-linejoin="round"/>
<path d="M303.734 434.845C303.734 434.845 301.338 434.734 299.814 438.749Z" fill="#FFBE9D"/>
<path d="M303.734 434.845C303.734 434.845 301.338 434.734 299.814 438.749" stroke="#263238" stroke-width="0.75" stroke-linecap="round" stroke-linejoin="round"/>
<ellipse cx="360.074" cy="750.5" rx="331.5" ry="53.5" fill="url(#paint0_radial_150_3193)"/>
<ellipse cx="152.525" cy="746.782" rx="60.5247" ry="9.78177" fill="url(#paint1_radial_150_3193)"/>
<path d="M99.0653 493.392C99.0653 493.392 94.8209 504.953 85.8062 506.517C76.7914 508.082 60.9022 490.767 70.969 481.831C81.0358 472.895 94.8209 487.081 99.0653 493.392Z" fill="#E8AA42"/>
<path d="M84.6087 507.524C78.7137 507.524 71.4765 501.429 68.4837 495.334C65.763 489.796 66.4522 484.635 70.2975 481.165C71.5618 479.992 73.0746 479.114 74.7253 478.594C76.3759 478.075 78.1228 477.927 79.8383 478.163C87.8555 479.17 96.1628 487.53 99.7905 492.888C99.8704 493.006 99.9219 493.14 99.9407 493.28C99.9596 493.421 99.9455 493.563 99.8993 493.697C99.718 494.183 95.3647 505.762 85.9509 507.416C85.5071 507.487 85.0583 507.523 84.6087 507.524V507.524ZM78.2966 479.871C75.8005 479.877 73.3983 480.814 71.5672 482.496C67.1052 486.469 68.7376 491.738 70.1162 494.542C73.3267 501.087 80.8722 506.463 85.6426 505.636C93.0975 504.342 97.1786 495.531 98.0311 493.5C94.6029 488.573 86.8579 480.914 79.6932 479.943C79.2294 479.892 78.7631 479.868 78.2966 479.871Z" fill="#263238"/>
<path d="M112.832 436.646C112.832 436.646 99.5913 468.705 104.888 484.455C110.184 500.206 142.978 511.785 152.592 491.287C162.205 470.79 140.929 441.914 132.984 435.549C125.039 429.185 115.481 431.396 112.832 436.646Z" fill="#E8AA42"/>
<path d="M134.235 503.19H132.549C119.997 502.506 107.155 494.2 104.035 484.796C98.5935 468.902 111.454 437.688 111.998 436.358C112.748 435.026 113.789 433.876 115.044 432.993C116.299 432.11 117.737 431.515 119.253 431.252C121.762 430.782 124.345 430.876 126.812 431.527C129.279 432.177 131.568 433.367 133.51 435.009C141.654 441.464 163.13 470.826 153.371 491.772C149.925 499.144 143.159 503.19 134.235 503.19ZM113.666 437.023C113.195 438.174 100.679 469.118 105.74 484.167C108.66 492.851 120.994 500.708 132.657 501.356C137.827 501.625 147.168 500.654 151.757 490.909C161.098 470.862 140.294 442.561 132.403 436.304C130.677 434.834 128.641 433.765 126.444 433.177C124.247 432.589 121.945 432.496 119.707 432.906C118.455 433.107 117.265 433.581 116.221 434.293C115.176 435.005 114.304 435.937 113.666 437.023V437.023Z" fill="#263238"/>
<path d="M190.21 450.311C190.21 450.311 167.428 470.808 164.817 491.287C162.205 511.767 177.513 519.138 193.439 516.459C209.364 513.78 217.273 473.901 212.502 455.507C207.732 437.114 190.21 450.311 190.21 450.311Z" fill="#E8AA42"/>
<path d="M187.272 517.916C180.838 518.183 174.55 515.966 169.732 511.731C164.78 507.002 162.749 499.882 163.873 491.18C166.54 470.592 188.668 450.491 189.611 449.646C189.974 449.376 198.554 443.011 205.7 445.492C209.328 446.751 211.922 450.095 213.3 455.399C216.746 468.705 213.663 494.955 204.503 508.926C201.238 513.906 197.52 516.783 193.493 517.448C191.436 517.774 189.355 517.93 187.272 517.916V517.916ZM190.79 451.012C189.829 451.875 168.208 471.833 165.669 491.395C164.617 499.522 166.467 506.103 171.002 510.436C176.026 515.237 184.134 517.125 193.239 515.614C196.758 515.039 200.059 512.432 203.052 507.901C211.958 494.326 214.951 468.741 211.595 455.759C210.38 451.066 208.203 448.153 205.156 447.093C199.062 445.061 191.353 450.599 190.79 451.012Z" fill="#263238"/>
<path d="M194.455 563.729C194.455 563.729 169.061 564.789 167.955 576.872C166.848 588.954 179.092 591.58 191.281 581.061C203.47 570.543 205.048 564.304 194.455 563.729Z" fill="#E8AA42"/>
<path d="M176.77 588.595C175.091 588.626 173.43 588.256 171.927 587.516C168.299 585.718 166.612 581.925 167.048 576.836C168.172 564.124 193.348 562.938 194.418 562.884C198.772 563.1 201.365 564.304 202.109 566.48C203.27 569.806 199.896 574.822 191.788 581.799C186.728 586.222 181.323 588.595 176.77 588.595ZM194.455 564.682C193.33 564.682 169.823 566.048 168.861 576.998C168.481 581.295 169.859 584.46 172.743 585.988C177.187 588.218 184.225 586.078 190.682 580.594C200.35 572.251 200.966 568.619 200.477 567.199C199.86 565.329 196.867 564.808 194.455 564.682Z" fill="#263238"/>
<path d="M168.753 580.613L167.991 578.976C168.825 578.617 188.251 569.825 197.303 568.188L197.611 569.986C188.796 571.551 168.952 580.523 168.753 580.613Z" fill="#263238"/>
<path d="M200.132 642.841C200.132 642.841 181.431 625.706 172.054 633.474C162.676 641.241 169.369 651.67 185.476 652.838C201.583 654.007 207.224 650.663 200.132 642.841Z" fill="#E8AA42"/>
<path d="M191.244 653.971C189.43 653.971 187.617 653.881 185.422 653.737C175.99 653.054 169.097 649.224 167.283 643.74C166.05 639.946 167.537 636.045 171.492 632.79C181.377 624.609 199.969 641.475 200.767 642.194C203.669 645.412 204.63 648.073 203.615 650.123C202.399 652.712 198.318 653.971 191.244 653.971ZM178.058 632.395C176.084 632.323 174.152 632.962 172.616 634.193C169.279 636.944 167.973 640.162 168.988 643.183C170.512 647.893 177.006 651.328 185.549 651.939C198.246 652.856 201.365 650.734 202.018 649.386C202.835 647.75 201.093 645.268 199.479 643.488C198.808 642.841 187 632.341 178.058 632.341V632.395Z" fill="#263238"/>
<path d="M197.901 649.458C190.645 644.351 170.167 636.728 169.968 636.638L170.603 634.966C171.455 635.271 191.444 642.751 198.935 647.983L197.901 649.458Z" fill="#263238"/>
<path d="M101.55 637.807C101.55 637.807 127.325 614.163 140.257 624.862C153.19 635.56 143.885 649.944 121.756 651.544C99.6273 653.144 91.7734 648.577 101.55 637.807Z" fill="#E8AA42"/>
<path d="M113.812 652.783C104.253 652.783 98.7568 651.129 97.0881 647.749C95.764 645.052 97.0881 641.51 100.97 637.195C102.058 636.206 127.47 613.155 140.874 624.249C146.207 628.654 148.129 633.886 146.569 638.975C144.157 646.4 134.689 651.561 121.847 652.514C118.854 652.676 116.151 652.783 113.812 652.783ZM102.294 638.399C99.9902 640.953 97.5052 644.477 98.6661 646.922C99.6274 648.864 103.89 651.92 121.72 650.626C133.619 649.781 142.688 644.944 144.846 638.345C146.261 633.994 144.429 629.445 139.713 625.544C127.687 615.637 103.201 637.536 102.203 638.435L102.294 638.399Z" fill="#263238"/>
<path d="M104.434 646.635L103.382 645.16C113.702 637.968 141.2 627.684 142.379 627.18L143.014 628.852C142.724 629.032 114.555 639.568 104.434 646.635Z" fill="#263238"/>
<path d="M131.388 589.009C131.388 589.009 128.74 601.595 119.199 606.341C109.658 611.088 92.6989 601.091 101.714 585.844C110.728 570.597 126.618 582.698 131.388 589.009Z" fill="#E8AA42"/>
<path d="M113.811 608.409C111.573 608.392 109.361 607.932 107.305 607.055C105.249 606.178 103.391 604.902 101.84 603.303C97.3237 598.52 96.961 591.975 100.861 585.323C103.763 580.414 107.608 577.789 112.27 577.519C120.323 577.088 128.685 583.956 132.041 588.397C132.12 588.498 132.175 588.614 132.204 588.739C132.232 588.863 132.232 588.992 132.204 589.116C132.095 589.656 129.356 602.206 119.507 607.096C117.735 607.962 115.786 608.411 113.811 608.409V608.409ZM113.032 579.371H112.379C108.352 579.605 104.996 581.924 102.421 586.294C98.9562 592.137 99.2283 597.891 103.164 602.062C107.1 606.233 114.047 607.852 118.727 605.514C126.817 601.505 129.791 591.328 130.336 589.188C127.016 584.927 119.725 579.371 113.104 579.371H113.032Z" fill="#263238"/>
<path d="M109.132 549.597C109.132 549.597 104.361 539.096 85.8057 546.001C67.2502 552.905 59.8316 563.333 71.4946 567.001C83.1575 570.669 109.132 549.597 109.132 549.597Z" fill="#E8AA42"/>
<path d="M74.5423 568.26C73.4181 568.275 72.2984 568.118 71.2229 567.793C66.1623 566.193 65.0378 563.55 65.0015 561.608C64.8745 556.214 72.9098 549.723 85.4978 545.084C104.616 538.036 109.912 549.112 109.948 549.237C110.036 549.416 110.058 549.619 110.012 549.813C109.965 550.006 109.853 550.177 109.694 550.298C108.715 551.143 87.3479 568.26 74.5423 568.26ZM97.1608 544.509C93.3782 544.609 89.6438 545.376 86.1327 546.774C72.7284 551.701 66.7246 557.904 66.8153 561.572C66.8153 564.017 69.5361 565.384 71.7671 566.085C81.8883 569.267 104.035 552.438 108.044 549.381C107.028 547.943 104.053 544.509 97.1608 544.509Z" fill="#263238"/>
<path d="M75.8847 560.871L74.7239 559.486C85.4255 550.496 104.67 548.321 105.559 548.231L105.74 550.029C105.487 550.047 86.1692 552.205 75.8847 560.871Z" fill="#263238"/>
<path d="M162.132 423.485C162.132 423.485 165.307 430.839 171.673 429.257C178.04 427.675 179.618 418.235 189.684 420.86C199.751 423.485 208.24 435.047 208.24 429.85C208.24 424.654 195.434 410.899 181.196 410.899C166.957 410.899 162.658 416.689 162.132 423.485Z" fill="#E8AA42"/>
<path d="M207.442 432.079C206.209 432.079 204.612 430.857 202 428.933C198.717 426.434 194.201 423.018 189.304 421.741C183.59 420.249 180.906 422.946 178.094 425.786C176.43 427.801 174.231 429.314 171.746 430.156C166.123 431.54 162.35 426.56 161.153 423.863C161.118 423.721 161.118 423.573 161.153 423.431C161.842 414.441 168.572 410 181.105 410C195.616 410 209.056 423.611 209.056 429.778C209.102 430.181 209.034 430.589 208.862 430.957C208.689 431.325 208.417 431.639 208.077 431.864C207.882 431.977 207.666 432.05 207.442 432.079V432.079ZM186.365 419.529C187.56 419.548 188.747 419.711 189.902 420.015C195.053 421.363 199.733 424.905 203.143 427.513C204.411 428.583 205.799 429.506 207.279 430.263C207.293 430.12 207.293 429.975 207.279 429.832C207.279 425.409 195.525 411.852 181.141 411.852C169.642 411.852 163.71 415.628 163.003 423.395C163.529 424.51 166.322 429.724 171.383 428.465C173.519 427.685 175.4 426.342 176.824 424.582C179.291 422.172 181.903 419.529 186.365 419.529Z" fill="#263238"/>
<path d="M142.96 578.275C142.312 575.706 141.525 573.173 140.602 570.688C131.533 546.612 110.202 550.316 109.295 550.478L108.951 548.68C109.186 548.68 132.639 544.491 142.307 570.022C143.235 572.584 144.016 575.195 144.647 577.844L142.96 578.275Z" fill="#263238"/>
<path d="M204.358 525.27C204.358 525.27 209.129 514.752 227.684 521.585C246.24 528.417 253.658 538.935 241.995 542.603C230.332 546.271 204.358 525.27 204.358 525.27Z" fill="#E8AA42"/>
<path d="M238.966 543.951C226.161 543.951 204.776 526.781 203.796 525.971C203.641 525.844 203.532 525.669 203.486 525.474C203.441 525.28 203.46 525.075 203.542 524.893C203.542 524.785 208.875 513.709 228.011 520.739C240.581 525.378 248.634 531.869 248.489 537.281C248.489 539.223 247.328 541.866 242.268 543.466C241.197 543.788 240.085 543.952 238.966 543.951V543.951ZM205.538 525.054C209.455 528.129 231.62 544.958 241.814 541.758C244.045 541.057 246.712 539.708 246.766 537.263C246.766 533.667 240.853 527.374 227.467 522.447C212.303 516.981 206.862 523.005 205.538 525.037V525.054Z" fill="#263238"/>
<path d="M236.047 536.526C227.413 525.972 208.839 526.853 208.658 526.853L208.549 525.055C209.347 525.055 228.247 524.102 237.461 535.375L236.047 536.526Z" fill="#263238"/>
<path d="M188.941 528.218L188.198 526.582C193.324 524.349 198.981 523.589 204.522 524.388L204.177 526.186C199.007 525.481 193.74 526.183 188.941 528.218V528.218Z" fill="#263238"/>
<path d="M120.65 507.056C109.767 496.106 99.0287 494.29 98.8836 494.272C98.7385 494.254 82.8856 490.173 76.9362 495.567L75.7209 494.236C82.3777 488.177 98.5753 492.33 99.3008 492.438C99.6817 492.438 110.692 494.236 121.956 505.707L120.65 507.056Z" fill="#263238"/>
<path d="M124.644 445.659L122.866 446.054L123.864 450.459L125.641 450.064L124.644 445.659Z" fill="#263238"/>
<path d="M150.27 680.491H148.456C148.456 679.592 150.814 589.746 148.456 562.65C146.098 535.555 135.142 503.514 135.034 503.191L123.715 453.116L125.529 452.721L136.793 502.597C136.793 502.831 147.912 535.105 150.27 562.381C152.628 589.656 150.306 679.592 150.27 680.491Z" fill="#263238"/>
<path d="M197.691 462.911L195.647 467.243L197.291 468.005L199.334 463.672L197.691 462.911Z" fill="#263238"/>
<path d="M155.82 680.384H154.007C154.007 679.557 154.841 597.532 157.979 574.212C161.117 550.892 173.669 513.943 173.85 513.565L193.331 472.211L194.981 472.967L175.482 514.249C175.482 514.518 162.786 551.234 159.72 574.428C156.655 597.622 155.82 679.557 155.82 680.384Z" fill="#263238"/>
<path d="M160.572 680.6L158.759 680.492C161.896 627.702 167.411 580.217 167.483 579.804L169.297 580.019C169.224 580.379 163.692 627.81 160.572 680.6Z" fill="#263238"/>
<path d="M142.361 680.402H140.547C140.547 679.647 142.089 604.976 139.006 595.015C137.935 591.599 136.521 589.621 134.888 589.064C134.382 588.952 133.857 588.954 133.352 589.069C132.847 589.184 132.374 589.41 131.968 589.729L131.768 589.891H131.496C131.351 589.891 117.203 591.689 112.179 599.618L110.655 598.665C115.807 590.484 128.993 588.416 131.025 588.147C131.641 587.693 132.352 587.382 133.105 587.236C133.858 587.09 134.635 587.112 135.378 587.302C137.663 587.949 139.459 590.358 140.819 594.494C143.903 604.67 142.416 677.31 142.361 680.402Z" fill="#263238"/>
<path d="M146.315 680.598L144.501 680.49C144.501 679.771 148.274 606.772 144.193 584.189L146.007 583.884C150.088 606.629 146.352 679.771 146.315 680.598Z" fill="#263238"/>
<path d="M162.785 680.492C162.785 676.033 161.806 570.724 171.274 545.732C173.553 539.053 177.877 533.245 183.644 529.118L184.66 530.61C179.207 534.53 175.118 540.035 172.961 546.361C163.638 571.03 164.599 679.413 164.599 680.474L162.785 680.492Z" fill="#263238"/>
<path d="M153.444 680.492L151.63 680.258C153.843 664.076 149.345 570.022 136.612 533.775C133.713 525.103 129.211 517.043 123.334 510.005L124.731 508.836C130.753 516.039 135.372 524.288 138.353 533.163C151.141 569.645 155.675 664.202 153.444 680.492Z" fill="#263238"/>
<path d="M155.82 680.384H154.007C154.007 679.467 154.569 588.272 155.331 543.214H157.145C156.383 588.272 155.82 679.467 155.82 680.384Z" fill="#263238"/>
<path d="M157.235 537.55H155.421C156.056 501.213 156.636 475.807 157.235 462.034C158.595 426.649 160.572 423.341 161.497 422.784C162.386 420.806 166.649 413.56 181.631 414.531L181.522 416.329C166.068 415.34 163.166 423.521 163.039 423.809L162.604 425.157L162.277 424.852C161.606 426.793 160.119 434.147 159.049 462.106C158.45 475.825 157.87 501.213 157.235 537.55Z" fill="#263238"/>
<path d="M136.049 571.946C136.049 571.946 122.79 560.241 128.104 554.487C133.419 548.734 166.195 544.49 175.79 551.988C185.385 559.486 164.127 569.968 156.183 572.342C148.238 574.715 138.697 573.87 136.049 571.946Z" fill="#E8AA42"/>
<path d="M145.608 574.661C141.092 574.661 137.21 573.906 135.505 572.684C135.124 572.342 126.327 564.503 126.001 558.192C125.94 557.418 126.041 556.641 126.297 555.908C126.553 555.174 126.958 554.501 127.488 553.93C133.22 547.673 166.449 543.502 176.462 551.341C177.438 551.972 178.208 552.87 178.679 553.927C179.149 554.983 179.299 556.153 179.11 557.293C177.713 564.359 162.604 571.443 156.528 573.205C152.975 574.196 149.299 574.686 145.608 574.661V574.661ZM136.539 571.245C138.933 572.917 148.021 573.744 155.857 571.479C162.495 569.555 176.026 562.687 177.169 556.951C177.298 556.123 177.175 555.276 176.816 554.517C176.458 553.758 175.88 553.122 175.156 552.69C166.087 545.624 133.746 549.615 128.703 555.081C128.337 555.48 128.058 555.949 127.884 556.46C127.709 556.97 127.642 557.511 127.688 558.048C128.032 563.424 136.031 570.724 136.612 571.245H136.539Z" fill="#263238"/>
<path d="M148.891 565.85H147.077C147.091 564.645 147.194 563.444 147.386 562.254L149.199 562.542C149.017 563.636 148.914 564.741 148.891 565.85V565.85Z" fill="#263238"/>
<path d="M150.306 557.651L148.492 557.13C149.404 554.093 150.563 551.135 151.957 548.284L153.571 549.093C152.267 551.86 151.176 554.721 150.306 557.651V557.651Z" fill="#263238"/>
<path d="M136.049 648.523C136.049 648.523 122.79 636.818 128.104 631.065C133.419 625.311 166.195 621.068 175.79 628.565C185.385 636.063 164.127 646.545 156.183 648.919C148.238 651.292 138.697 650.447 136.049 648.523Z" fill="#E8AA42"/>
<path d="M145.608 651.238C141.092 651.238 137.21 650.482 135.505 649.26C135.124 648.918 126.327 641.079 126.001 634.768C125.939 633.994 126.039 633.216 126.295 632.483C126.551 631.75 126.957 631.077 127.488 630.507C133.22 624.25 166.449 620.078 176.462 627.917C177.435 628.546 178.203 629.442 178.673 630.495C179.143 631.548 179.295 632.714 179.11 633.851C177.713 640.917 162.604 648.001 156.528 649.763C152.976 650.76 149.3 651.257 145.608 651.238V651.238ZM136.539 647.821C138.933 649.493 148.021 650.321 155.856 648.055C162.495 646.131 176.026 639.263 177.169 633.527C177.297 632.699 177.175 631.852 176.816 631.093C176.458 630.334 175.88 629.698 175.156 629.266C166.086 622.2 133.746 626.191 128.703 631.657C128.337 632.056 128.058 632.525 127.883 633.036C127.709 633.546 127.642 634.087 127.688 634.624C128.032 640 136.031 647.3 136.612 647.821H136.539Z" fill="#263238"/>
<path d="M148.891 642.428H147.077C147.077 634.75 151.829 625.257 152.029 624.861L153.643 625.67C153.607 625.76 148.891 635.182 148.891 642.428Z" fill="#263238"/>
<path d="M145.917 616.141C145.917 616.141 136.848 608.194 140.475 604.274C144.103 600.354 166.377 597.495 172.87 602.584C179.364 607.672 164.944 614.846 159.557 616.41C154.17 617.975 147.712 617.453 145.917 616.141Z" fill="#E8AA42"/>
<path d="M152.429 618.262C149.992 618.431 147.555 617.947 145.373 616.859V616.859C145.119 616.644 139.061 611.232 138.843 606.826C138.796 606.266 138.866 605.701 139.05 605.169C139.235 604.636 139.528 604.148 139.913 603.734C143.867 599.437 166.685 596.542 173.542 601.936C174.238 602.412 174.78 603.078 175.102 603.854C175.424 604.629 175.512 605.481 175.355 606.305C174.322 611.501 163.457 616.266 159.829 617.327C157.416 617.968 154.927 618.283 152.429 618.262V618.262ZM146.461 615.439C148.021 616.518 154.17 617.021 159.321 615.547C163.765 614.252 172.834 609.685 173.578 605.892C173.645 605.382 173.561 604.863 173.335 604.4C173.11 603.937 172.753 603.549 172.308 603.284C166.268 598.556 144.538 601.217 141.165 604.885C140.94 605.124 140.77 605.408 140.667 605.719C140.563 606.029 140.529 606.358 140.566 606.683C140.729 609.703 144.847 614.072 146.461 615.439Z" fill="#263238"/>
<path d="M154.931 612.005H153.117C153.117 606.719 156.364 600.229 156.491 599.941L158.124 600.75C156.363 604.272 155.28 608.09 154.931 612.005V612.005Z" fill="#263238"/>
<path d="M169.333 667.348H133.473V746.19H169.333V667.348Z" fill="#263238"/>
<path d="M169.333 747.125H133.473C133.233 747.125 133.002 747.03 132.832 746.861C132.662 746.693 132.566 746.464 132.566 746.226V667.347C132.566 667.109 132.662 666.88 132.832 666.712C133.002 666.543 133.233 666.448 133.473 666.448H169.333C169.573 666.448 169.804 666.543 169.974 666.712C170.144 666.88 170.24 667.109 170.24 667.347V746.19C170.245 746.311 170.225 746.431 170.181 746.545C170.138 746.658 170.072 746.761 169.987 746.849C169.903 746.936 169.801 747.005 169.688 747.053C169.576 747.1 169.455 747.125 169.333 747.125V747.125ZM134.38 745.327H168.426V668.246H134.38V745.327Z" fill="#263238"/>
<path d="M565.894 457.957H93.6121V474.569H565.894V457.957Z" fill="#263238" stroke="#263238" stroke-linecap="round" stroke-linejoin="round"/>
<path d="M664.583 457.957H558.835V474.569H664.583V457.957Z" fill="#858585" stroke="#263238" stroke-linecap="round" stroke-linejoin="round"/>
<path d="M587.316 474.55H117.802V501.916H587.316V474.55Z" fill="#C2B49C" stroke="#263238" stroke-miterlimit="10"/>
<path d="M587.316 501.935H641.992V474.568H587.316V501.935Z" fill="#263238"/>
<path opacity="0.3" d="M587.315 501.935H641.991V474.568H587.315V501.935Z" fill="#C2B49C"/>
<path d="M587.316 501.935H641.992V474.568H587.316V501.935Z" stroke="#263238" stroke-miterlimit="10"/>
<path d="M398.8 456.116H343.455C342.911 456.111 342.391 455.893 342.009 455.51C341.626 455.128 341.411 454.61 341.411 454.071V449.541L400.862 451.383V454.071C400.862 454.614 400.645 455.134 400.258 455.517C399.871 455.9 399.347 456.116 398.8 456.116Z" fill="#858585" stroke="#263238" stroke-linecap="round" stroke-linejoin="round"/>
<path d="M335.225 456.115H223.959C223.043 456.081 222.161 455.767 221.432 455.216C220.704 454.666 220.165 453.905 219.89 453.039L195.998 376.17C195.819 375.721 195.756 375.236 195.813 374.757C195.871 374.278 196.047 373.82 196.327 373.426C196.607 373.031 196.982 372.712 197.417 372.496C197.853 372.281 198.336 372.176 198.822 372.192H310.088C311.002 372.222 311.884 372.532 312.613 373.08C313.341 373.627 313.881 374.385 314.157 375.249L338.049 452.118C338.227 452.568 338.29 453.055 338.232 453.534C338.174 454.014 337.998 454.472 337.718 454.867C337.439 455.263 337.065 455.584 336.63 455.802C336.195 456.019 335.712 456.127 335.225 456.115V456.115Z" fill="#999999" stroke="#263238" stroke-linecap="round" stroke-linejoin="round"/>
<path d="M342.972 452.118L319.08 375.249C318.804 374.384 318.265 373.627 317.536 373.079C316.807 372.532 315.925 372.221 315.012 372.191H310.088C311.002 372.221 311.884 372.532 312.613 373.079C313.341 373.627 313.881 374.384 314.157 375.249L338.049 452.118C338.227 452.568 338.29 453.054 338.232 453.534C338.174 454.013 337.998 454.471 337.718 454.867C337.439 455.263 337.065 455.584 336.63 455.801C336.195 456.019 335.712 456.126 335.225 456.114H340.223C340.703 456.114 341.177 455.998 341.602 455.775C342.027 455.552 342.391 455.23 342.662 454.836C342.933 454.442 343.103 453.989 343.157 453.515C343.211 453.041 343.148 452.562 342.972 452.118Z" fill="#858585" stroke="#263238" stroke-linecap="round" stroke-linejoin="round"/>
<path d="M273.916 414.144C274.052 415 273.997 415.876 273.754 416.708C273.512 417.541 273.087 418.311 272.511 418.962C271.935 419.614 271.221 420.133 270.421 420.481C269.62 420.829 268.752 420.998 267.878 420.977C265.982 420.93 264.165 420.217 262.749 418.966C261.334 417.715 260.412 416.006 260.149 414.144C260.012 413.289 260.067 412.415 260.31 411.583C260.553 410.751 260.978 409.983 261.554 409.332C262.131 408.682 262.845 408.165 263.645 407.819C264.446 407.473 265.314 407.306 266.187 407.33C268.079 407.381 269.892 408.092 271.306 409.339C272.721 410.586 273.645 412.288 273.916 414.144V414.144Z" fill="#FFBE9D" stroke="#263238" stroke-linecap="round" stroke-linejoin="round"/>
<defs>
<radialGradient id="paint0_radial_150_3193" cx="0" cy="0" r="1" gradientUnits="userSpaceOnUse" gradientTransform="translate(360.074 750.5) rotate(90.096) scale(44.0001 403.828)">
<stop stop-color="#1E1E1E" stop-opacity="0.35"/>
<stop offset="1" stop-color="#D9D9D9" stop-opacity="0"/>
</radialGradient>
<radialGradient id="paint1_radial_150_3193" cx="0" cy="0" r="1" gradientUnits="userSpaceOnUse" gradientTransform="translate(152.525 746.782) rotate(90) scale(9.78177 60.5247)">
<stop stop-color="#7B7B7B" stop-opacity="0.72"/>
<stop offset="1" stop-color="#D9D9D9" stop-opacity="0.03"/>
</radialGradient>
</defs>
</svg>
