<svg width="606" height="766" viewBox="0 0 606 766" fill="none" xmlns="http://www.w3.org/2000/svg">
<ellipse cx="302.624" cy="716.909" rx="302.624" ry="48.9089" fill="url(#paint0_radial_2_2121)"/>
<ellipse cx="447.059" cy="717.181" rx="60.5247" ry="9.78177" fill="url(#paint1_radial_2_2121)"/>
<path d="M322.632 21.5352C335.994 59.4429 326.769 89.5789 310.459 96.6138C285.114 107.546 253.16 96.7564 253.16 96.7564C253.16 96.7564 270.825 76.3884 270.825 41.1426C270.825 3.66274 305.466 11.7909 322.632 21.5352Z" fill="#263238"/>
<path d="M278.671 710.932C297.929 709.435 310.887 696.22 309.579 682.222C308.842 674.498 333.522 673.809 333.522 673.809C329.622 697.742 334.52 701.164 336.137 707.343C337.754 713.522 337.349 720.367 332.238 720.486C326.127 720.652 323.274 719.488 315.595 719.773C306.702 720.13 297.097 720.462 281.286 720.486C275.033 720.51 270.112 711.597 278.671 710.932Z" fill="#E8AA42"/>
<path d="M250.52 259.985C250.52 259.985 253.968 372.187 270.302 456.701C273.725 519.683 300.354 649.21 306.679 679.156C307.087 681.083 308.092 682.832 309.552 684.155C311.012 685.478 312.852 686.307 314.81 686.524C318.686 686.978 322.599 687.018 326.484 686.643C328.539 686.399 330.45 685.468 331.909 684.001C333.368 682.534 334.288 680.617 334.52 678.562C337.801 652.419 348.263 553.978 333.688 455.489C346.194 335.064 341.938 259.985 341.938 259.985H250.52Z" fill="#263238"/>
<path opacity="0.2" d="M342.438 315.813C341.843 349.49 339.751 397.166 333.688 455.465C334.972 464.092 336.066 472.743 336.755 481.323C294.886 412.067 284.971 302.646 342.438 315.813Z" fill="#222831"/>
<path d="M480.527 673.904C473.492 666.364 467.524 657.896 462.791 648.735C462.791 648.735 440.75 654.154 445.078 660.618C452.924 672.145 456.751 695.84 446.647 708.532C440.869 715.78 449.999 716.992 456.038 713.879C465.549 708.959 465.239 707.106 470.304 698.954C474.56 691.99 476.248 689.257 482.192 686.262C486.875 683.672 484.498 678.823 480.527 673.904Z" fill="#E8AA42"/>
<path d="M283.806 259.985C283.806 259.985 320.92 415.894 344.316 482.488C365.952 543.996 424.512 634.903 440.061 659.05C441.188 660.804 442.871 662.13 444.841 662.815C446.811 663.5 448.954 663.505 450.926 662.829C454.843 661.552 458.607 659.847 462.149 657.743C463.851 656.708 465.175 655.154 465.924 653.309C466.673 651.464 466.809 649.427 466.309 647.499C460.199 623.448 436.019 531.043 409.247 465.519C397.36 307.019 357.583 259.985 357.583 259.985H283.806Z" fill="#263238"/>
<path d="M359.271 336.965C359.452 336.972 359.633 336.931 359.794 336.846C359.934 336.778 360.06 336.682 360.164 336.565C360.268 336.448 360.347 336.312 360.398 336.164C360.449 336.016 360.47 335.859 360.46 335.703C360.45 335.547 360.41 335.394 360.341 335.254C359.376 332.735 359.038 330.018 359.357 327.34C359.676 324.661 360.642 322.1 362.171 319.877C363.022 318.512 364.241 317.416 365.688 316.713C367.135 316.011 368.751 315.732 370.35 315.908C375.914 316.573 389.632 319.449 396.67 331.618C396.833 331.889 397.096 332.086 397.403 332.166C397.71 332.246 398.035 332.203 398.311 332.045C398.58 331.887 398.777 331.628 398.857 331.325C398.937 331.023 398.894 330.701 398.738 330.429C393.389 321.208 383.165 315.052 370.635 313.531C368.608 313.292 366.554 313.632 364.711 314.511C362.868 315.39 361.312 316.773 360.222 318.499C358.447 321.071 357.335 324.041 356.982 327.146C356.63 330.251 357.048 333.395 358.201 336.3C358.296 336.502 358.448 336.672 358.638 336.79C358.828 336.907 359.047 336.968 359.271 336.965Z" fill="#E8AA42"/>
<path d="M346.075 455.441L441.202 443.273L414.645 323.275L337.611 333.139L346.075 455.441Z" fill="#E8AA42"/>
<path opacity="0.2" d="M337.611 333.139L348.215 331.784L371.658 452.185L346.075 455.441L337.611 333.139Z" fill="#222831"/>
<path d="M152.207 114.058L146.834 106.477C144.882 103.723 142.242 101.527 139.178 100.108L133.377 97.4219C131.518 96.5691 129.42 96.3921 127.445 96.9215C125.47 97.451 123.741 98.6535 122.559 100.321L118.874 105.503C118.207 106.45 117.734 107.519 117.483 108.65C117.232 109.781 117.207 110.95 117.411 112.09C117.614 113.23 118.041 114.319 118.668 115.293C119.294 116.267 120.108 117.108 121.061 117.766L125.531 120.832C125.531 120.832 136.848 130.838 148.855 131.717L150.614 128.841C152.021 126.675 152.898 124.208 153.175 121.64C153.451 119.072 153.12 116.475 152.207 114.058Z" fill="#FFBE9D"/>
<path d="M258.01 124.753L255.157 126.94L251.852 129.317C249.474 130.909 247.311 132.549 244.957 134.07C240.362 137.115 235.599 139.901 230.691 142.412C228.314 143.648 225.936 144.789 223.44 145.739C221.077 146.789 218.656 147.701 216.188 148.472C213.811 149.257 211.433 149.851 209.055 150.374C207.867 150.635 206.678 150.825 205.513 151.015L203.753 151.229H202.897H203.397H204.015C205.37 151.562 204.871 151.633 204.372 151.467C203.499 151.201 202.648 150.867 201.828 150.469C199.523 149.308 197.291 148.006 195.147 146.571C190.391 143.505 185.636 139.94 180.715 136.209C170.99 128.817 161.171 120.737 151.28 113.013L151.09 112.87C149.298 111.473 147.069 110.754 144.797 110.841C142.526 110.928 140.359 111.816 138.679 113.347C137 114.878 135.916 116.954 135.62 119.206C135.324 121.459 135.835 123.744 137.062 125.657C144.231 136.775 152.243 147.327 161.028 157.219C165.562 162.387 170.397 167.283 175.508 171.883C178.348 174.438 181.342 176.819 184.471 179.012C186.351 180.315 188.322 181.483 190.368 182.506C193.349 184.035 196.562 185.062 199.878 185.548C200.475 185.654 201.079 185.718 201.685 185.738H202.66H204.728C205.727 185.738 206.749 185.738 207.748 185.738C209.745 185.738 211.766 185.596 213.715 185.406C217.613 185.066 221.482 184.455 225.294 183.576C232.65 181.928 239.819 179.54 246.692 176.446C253.349 173.554 259.765 170.136 265.88 166.226C268.899 164.277 271.871 162.281 274.748 160.118C276.198 159.025 277.625 157.955 279.051 156.791L281.191 154.984L283.569 152.893C286.628 149.464 288.354 145.05 288.433 140.456C288.512 135.862 286.938 131.392 283.998 127.859C281.057 124.327 276.946 121.968 272.412 121.21C267.879 120.453 263.223 121.347 259.294 123.731L258.01 124.753Z" fill="#FFBE9D"/>
<path d="M246.146 150.754C246.526 159.88 232.118 180.985 249.902 193.201C246.597 200.64 243.792 251.001 250.52 259.985C260.316 267.115 313.479 265.808 357.512 259.985C359.366 241.78 349.356 204.062 361.625 145.264C362.298 142.045 362.287 138.72 361.591 135.505C360.896 132.291 359.532 129.258 357.588 126.605C355.644 123.951 353.164 121.736 350.308 120.102C347.452 118.469 344.285 117.455 341.011 117.124C337.326 116.768 333.403 116.435 329.385 116.245C315.351 115.258 301.264 115.258 287.23 116.245C282.665 116.673 277.981 117.243 273.488 117.885C265.659 118.988 258.522 122.965 253.467 129.042C248.413 135.118 245.802 142.859 246.146 150.754Z" fill="#E8AA42"/>
<path opacity="0.6" d="M246.146 150.754C246.526 159.88 232.118 180.985 249.902 193.201C246.597 200.64 243.792 251.001 250.52 259.985C260.316 267.115 313.479 265.808 357.512 259.985C359.366 241.78 349.356 204.062 361.625 145.264C362.298 142.045 362.287 138.72 361.591 135.505C360.896 132.291 359.532 129.258 357.588 126.605C355.644 123.951 353.164 121.736 350.308 120.102C347.452 118.469 344.285 117.455 341.011 117.124C337.326 116.768 333.403 116.435 329.385 116.245C315.351 115.258 301.264 115.258 287.23 116.245C282.665 116.673 277.981 117.243 273.488 117.885C265.659 118.988 258.522 122.965 253.467 129.042C248.413 135.118 245.802 142.859 246.146 150.754Z" fill="white"/>
<path d="M330.74 68.8069C327.387 82.3776 324.106 104.457 329.456 116.34C329.456 116.34 309.437 117.243 283.854 137.73C271.8 120.048 285.732 116.578 285.732 116.578C296.384 114.201 298.048 101.153 298.048 91.0524L330.74 68.8069Z" fill="#FFBE9D"/>
<path opacity="0.2" d="M298.001 90.8861L316.475 78.3374C316.647 81.1843 316.073 84.0268 314.81 86.5844C310.901 93.9108 304.526 99.6187 296.812 102.698C297.618 98.8129 298.017 94.8541 298.001 90.8861Z" fill="#222831"/>
<path d="M339.537 43.9471C334.235 66.0025 332.404 75.4378 319.399 84.9207C299.736 99.1806 274.225 87.9153 273.06 64.7666C271.919 43.8996 280.763 11.3632 303.731 6.27712C326.698 1.19107 344.815 21.8917 339.537 43.9471Z" fill="#FFBE9D"/>
<path d="M337.682 24.5061C314.905 40.0969 286.374 34.488 277.149 25.1002C269.351 17.186 277.149 3.52019 277.149 3.52019C277.149 3.52019 280.621 9.29547 288.157 5.51659C295.694 1.7377 311.077 -1.92236 323.607 1.14353C339.513 5.01748 353.826 13.4546 337.682 24.5061Z" fill="#263238"/>
<path d="M302.637 52.9069C302.328 54.737 301.091 56.0204 299.926 55.8302C298.761 55.6401 298.024 53.9765 298.357 52.1464C298.69 50.3164 299.903 49.033 301.091 49.2469C302.28 49.4608 302.97 51.1007 302.637 52.9069Z" fill="#263238"/>
<path d="M280.264 49.2945C279.955 51.1008 278.719 52.4079 277.53 52.194C276.341 51.9801 275.652 50.3403 275.961 48.534C276.27 46.7277 277.506 45.3968 278.695 45.6107C279.884 45.8246 280.597 47.4645 280.264 49.2945Z" fill="#263238"/>
<path d="M279.218 45.8009L275.081 43.7808C275.081 43.7808 276.697 47.6785 279.218 45.8009Z" fill="#263238"/>
<path d="M285.566 50.7681C283.212 54.6134 280.349 58.123 277.054 61.2016C277.859 62.0313 278.836 62.6741 279.916 63.0848C280.997 63.4955 282.154 63.6639 283.307 63.5782L285.566 50.7681Z" fill="#E9AE90"/>
<path d="M296.503 72.3482C295.466 72.3423 294.432 72.2468 293.412 72.063C293.283 72.0247 293.173 71.9404 293.102 71.8261C293.032 71.7118 293.006 71.5756 293.029 71.4433C293.053 71.3111 293.124 71.1922 293.23 71.1092C293.336 71.0263 293.468 70.9851 293.602 70.9935C295.851 71.4477 298.176 71.3636 300.387 70.7482C302.598 70.1327 304.632 69.0034 306.322 67.4523C306.424 67.3535 306.561 67.2983 306.703 67.2983C306.845 67.2983 306.981 67.3535 307.083 67.4523C307.135 67.5012 307.176 67.5601 307.204 67.6255C307.232 67.6909 307.247 67.7613 307.247 67.8325C307.247 67.9037 307.232 67.9742 307.204 68.0396C307.176 68.105 307.135 68.1639 307.083 68.2128C304.232 70.9199 300.435 72.4043 296.503 72.3482Z" fill="#263238"/>
<path d="M341.154 64.4815C340.309 66.3632 339.075 68.0452 337.535 69.4173C335.994 70.7894 334.181 71.8206 332.214 72.4433C327.173 73.8455 324.677 68.3317 326.103 62.7228C327.387 57.6843 331.548 50.8395 336.589 52.0041C341.629 53.1687 343.46 59.5619 341.154 64.4815Z" fill="#FFBE9D"/>
<path d="M328.124 20.6082C332.894 18.8045 338.174 18.8955 342.879 20.8625C347.584 22.8295 351.357 26.5231 353.422 31.1844C367.212 61.4392 362.171 90.8622 349.38 99.9648C334.901 110.256 305.894 107.095 305.894 107.095C305.894 107.095 328.957 72.2055 321.443 49.9124C316.332 34.7969 318.424 24.5773 328.124 20.6082Z" fill="#263238"/>
<path d="M309.056 42.6398C308.917 42.5996 308.787 42.53 308.676 42.4357C308.566 42.3415 308.476 42.2247 308.414 42.0932C307.826 40.8787 306.963 39.8173 305.895 38.9925C304.826 38.1677 303.581 37.602 302.256 37.3399C301.976 37.3042 301.722 37.1593 301.548 36.9367C301.374 36.7141 301.295 36.4319 301.329 36.1515C301.344 36.0108 301.386 35.8743 301.454 35.7501C301.522 35.6259 301.614 35.5164 301.725 35.428C301.835 35.3395 301.962 35.2739 302.099 35.2349C302.235 35.196 302.377 35.1844 302.518 35.2009C304.211 35.5063 305.805 36.2141 307.166 37.2648C308.528 38.3155 309.616 39.678 310.34 41.2376C310.405 41.3637 310.445 41.5016 310.456 41.6432C310.468 41.7848 310.451 41.9272 310.406 42.0621C310.362 42.1971 310.292 42.3219 310.198 42.4293C310.105 42.5366 309.992 42.6243 309.865 42.6873C309.599 42.778 309.309 42.7609 309.056 42.6398Z" fill="#263238"/>
<path d="M273.868 38.1719C273.657 38.1417 273.46 38.0492 273.302 37.9062C273.144 37.7633 273.032 37.5764 272.981 37.3696C272.93 37.1628 272.942 36.9454 273.015 36.7454C273.089 36.5453 273.22 36.3717 273.393 36.2468C274.739 35.1765 276.322 34.4433 278.009 34.1084C279.697 33.7735 281.44 33.8467 283.093 34.3217C283.334 34.4407 283.523 34.6442 283.623 34.8933C283.724 35.1425 283.729 35.42 283.638 35.6727C283.547 35.9255 283.366 36.1358 283.129 36.2637C282.893 36.3915 282.618 36.4278 282.356 36.3657C281.044 36.0013 279.663 35.958 278.331 36.2393C276.998 36.5206 275.753 37.1182 274.7 37.9818C274.458 38.1504 274.16 38.2185 273.868 38.1719Z" fill="#263238"/>
<path d="M301.591 49.4372L297.454 47.417C297.454 47.417 299.094 51.2197 301.591 49.4372Z" fill="#263238"/>
<path opacity="0.2" d="M359.509 156.672C357.386 169.17 356.083 181.793 355.609 194.461C345.481 180.415 333.95 154.913 334.615 143.006L359.509 156.672Z" fill="#E8AA42"/>
<path d="M367.164 289.907L359.746 303.335L383.736 310.917C383.736 310.917 388.277 296.657 384.331 285.463L381.05 285.083C378.519 284.758 375.948 285.024 373.539 285.861C371.129 286.699 368.947 288.084 367.164 289.907Z" fill="#FFBE9D"/>
<path d="M365.928 319.045L374.559 320.566C375.495 320.738 376.457 320.723 377.388 320.524C378.319 320.324 379.201 319.943 379.985 319.402C380.769 318.861 381.439 318.172 381.956 317.372C382.473 316.573 382.827 315.68 382.999 314.743L383.736 310.917L359.746 303.335L359.936 312.01C359.97 313.694 360.584 315.314 361.676 316.596C362.768 317.879 364.271 318.744 365.928 319.045Z" fill="#FFBE9D"/>
<path d="M329.789 151.824L342.176 168.46C346.313 174.045 350.331 179.678 354.23 185.263C356.18 188.044 358.082 190.872 359.889 193.676C361.696 196.481 363.503 199.238 365.12 201.995C366.736 204.752 368.234 207.509 369.518 210.052C370.593 212.145 371.515 214.313 372.276 216.54L372.038 214.757C372.202 215.691 372.282 216.638 372.276 217.586C372.276 218.845 372.276 220.271 372.276 221.745C372.276 224.668 372.062 227.781 371.824 230.942C371.349 237.264 370.873 243.753 370.231 250.288L368.496 269.991C367.949 276.598 367.355 283.276 367.022 289.883C366.915 292.149 367.61 294.379 368.985 296.184C370.36 297.988 372.326 299.25 374.539 299.75C376.752 300.249 379.071 299.953 381.087 298.913C383.104 297.874 384.69 296.158 385.567 294.066C388.182 287.697 390.322 281.351 392.7 274.911C395.077 268.47 396.86 262.005 398.739 255.446C400.617 248.886 402.329 242.255 403.779 235.411C404.492 231.964 405.182 228.471 405.752 224.787C406.062 222.933 406.299 221.032 406.489 218.964C406.719 216.595 406.782 214.212 406.68 211.834C406.704 211.557 406.704 211.279 406.68 211.002L406.513 210.028C405.681 205.239 404.383 200.543 402.638 196.006C401.116 191.894 399.357 188.234 397.621 184.598C394.18 177.639 390.378 170.864 386.233 164.301C382.238 157.813 378.006 151.633 373.655 145.549C369.304 139.465 364.882 133.666 359.865 127.7C356.624 123.982 352.076 121.653 347.164 121.196C342.252 120.738 337.352 122.187 333.48 125.242C329.607 128.298 327.059 132.725 326.363 137.607C325.667 142.489 326.877 147.452 329.741 151.467L329.789 151.824Z" fill="#FFBE9D"/>
<g opacity="0.6">
<path d="M233.759 170.694C233.759 170.694 222.893 207.223 196.645 219.463C170.396 231.703 138.632 214.995 138.632 214.995C138.632 214.995 149.497 178.466 175.769 166.226C202.042 153.986 233.759 170.694 233.759 170.694Z" fill="#E8AA42"/>
<path d="M218.613 243.491C218.613 243.491 194.005 259.486 171.918 251.619C149.83 243.753 138.632 214.995 138.632 214.995C138.632 214.995 163.263 199 185.351 206.867C207.439 214.734 218.613 243.491 218.613 243.491Z" fill="#E8AA42"/>
</g>
<g opacity="0.6">
<path d="M11.5736 170.694C11.5736 170.694 22.4153 207.223 48.6876 219.463C74.9598 231.703 106.677 214.995 106.677 214.995C106.677 214.995 95.8112 178.466 69.5627 166.226C43.3142 153.986 11.5736 170.694 11.5736 170.694Z" fill="#E8AA42"/>
<path d="M26.695 243.491C26.695 243.491 51.3267 259.486 73.3906 251.619C95.4546 243.753 106.677 214.995 106.677 214.995C106.677 214.995 82.0688 199 59.9811 206.867C37.8933 214.734 26.695 243.491 26.695 243.491Z" fill="#E8AA42"/>
</g>
<path d="M69.8955 194.603H175.484C177.81 194.597 180.074 193.856 181.953 192.486C183.833 191.117 185.231 189.188 185.948 186.976C186.665 184.765 186.665 182.383 185.947 180.172C185.229 177.96 183.831 176.032 181.951 174.663L137.847 142.578C133.449 139.359 128.14 137.624 122.69 137.624C117.239 137.624 111.93 139.359 107.533 142.578L63.4047 174.663C61.5233 176.033 60.1239 177.964 59.4065 180.177C58.6892 182.391 58.6908 184.775 59.4111 186.988C60.1314 189.201 61.5334 191.129 63.4166 192.497C65.2998 193.865 67.5676 194.602 69.8955 194.603ZM122.678 139.94C127.623 139.944 132.44 141.508 136.444 144.408L180.572 176.517C182.046 177.592 183.142 179.106 183.703 180.841C184.265 182.577 184.264 184.445 183.699 186.18C183.135 187.914 182.036 189.426 180.561 190.5C179.086 191.573 177.309 192.152 175.484 192.155H69.8955C68.0708 192.152 66.2937 191.573 64.8183 190.5C63.3428 189.426 62.2444 187.914 61.6801 186.18C61.1157 184.445 61.1143 182.577 61.6759 180.841C62.2376 179.106 63.3336 177.592 64.8075 176.517L108.935 144.408C112.94 141.536 117.749 139.998 122.678 140.011V139.94Z" fill="#263238"/>
<path d="M122.678 140.012C122.993 140.012 123.296 139.886 123.519 139.663C123.741 139.441 123.867 139.138 123.867 138.823V133.238C123.888 132.241 124.214 131.274 124.8 130.467C125.387 129.66 126.206 129.051 127.148 128.722C129.254 127.913 131.099 126.543 132.484 124.761C133.869 122.98 134.74 120.854 135.004 118.613C135.268 116.373 134.914 114.103 133.982 112.048C133.049 109.994 131.573 108.233 129.712 106.956C127.851 105.68 125.677 104.935 123.424 104.804C121.171 104.672 118.925 105.159 116.928 106.21C114.931 107.262 113.26 108.839 112.094 110.77C110.929 112.702 110.313 114.916 110.314 117.172C110.314 117.487 110.44 117.789 110.663 118.012C110.886 118.235 111.188 118.36 111.503 118.36C111.819 118.36 112.121 118.235 112.344 118.012C112.567 117.789 112.692 117.487 112.692 117.172C112.689 115.675 113.022 114.197 113.667 112.847C114.312 111.496 115.253 110.308 116.419 109.37C117.586 108.432 118.949 107.769 120.406 107.428C121.864 107.088 123.38 107.08 124.841 107.404C126.908 107.892 128.767 109.025 130.147 110.639C131.527 112.253 132.358 114.263 132.52 116.38C132.681 118.497 132.165 120.611 131.045 122.415C129.926 124.219 128.261 125.621 126.292 126.417C124.908 126.928 123.712 127.847 122.863 129.052C122.014 130.257 121.551 131.692 121.537 133.167V138.871C121.548 139.17 121.672 139.453 121.884 139.664C122.095 139.876 122.379 140 122.678 140.012Z" fill="#263238"/>
<path d="M180.952 286.129C167.186 252.855 183.996 227.496 184.661 207.437C185.327 187.378 158.223 173.118 157.319 145.644C142.531 137.183 140.296 147.878 140.296 147.878V165.703C140.347 170.412 138.543 174.951 135.273 178.34C132.002 181.729 127.529 183.695 122.82 183.813H122.416C117.705 183.695 113.23 181.73 109.956 178.341C106.682 174.953 104.872 170.414 104.917 165.703V147.878C104.917 147.878 102.682 137.183 87.8937 145.644C87.014 173.118 59.9096 187.378 60.5754 207.437C61.2411 227.496 78.0506 252.855 64.2607 286.129C50.4707 319.402 2.44357 513.551 5.10646 545.446C21.1076 559.088 47.1421 568.19 68.6354 573.847L68.0885 583.852C104.434 600.251 140.787 600.251 177.148 583.852L176.601 573.823C197.999 568.19 224.153 559.088 240.106 545.446C242.936 513.503 194.79 319.402 180.952 286.129Z" fill="#E8AA42"/>
<path d="M69.5637 258.103C69.5637 258.103 69.0166 263.805 69.0166 267.399C69.0166 270.993 67.3755 276.148 67.3755 276.148C86.102 278.578 107.775 280.025 126.72 279.757C142.992 280.526 161.497 278.304 177.331 275.055C177.331 275.055 176.665 270.091 176.237 266.852C175.788 263.458 175.69 258.103 175.69 258.103C140.972 263.493 104.281 263.493 69.5637 258.103Z" fill="#37474F"/>
<path opacity="0.2" d="M171.894 557.186L142.935 335.634L180.334 524.982L171.894 557.186Z" fill="#222831"/>
<path opacity="0.2" d="M73.4381 557.186L102.373 335.634L64.9739 524.982L73.4381 557.186Z" fill="#222831"/>
<defs>
<radialGradient id="paint0_radial_2_2121" cx="0" cy="0" r="1" gradientUnits="userSpaceOnUse" gradientTransform="translate(302.624 716.909) rotate(90) scale(48.9089 302.624)">
<stop stop-color="#7B7B7B" stop-opacity="0.25"/>
<stop offset="1" stop-color="#D9D9D9" stop-opacity="0.03"/>
</radialGradient>
<radialGradient id="paint1_radial_2_2121" cx="0" cy="0" r="1" gradientUnits="userSpaceOnUse" gradientTransform="translate(447.059 717.181) rotate(90) scale(9.78177 60.5247)">
<stop stop-color="#7B7B7B" stop-opacity="0.25"/>
<stop offset="1" stop-color="#D9D9D9" stop-opacity="0.03"/>
</radialGradient>
</defs>
</svg>
