<svg width="1718" height="966" viewBox="0 0 1718 966" fill="none" xmlns="http://www.w3.org/2000/svg">
<path d="M224.376 317.472C52.8572 93.3463 220.085 16.3335 325.139 5.84243L325.139 4.01708e-05L0 4.01708e-05L-7.1024e-06 965.999L348.221 965.999C372.487 961.862 459.5 871.229 459.5 767.5C459.5 627.594 438.775 597.629 224.376 317.472Z" fill="url(#paint0_linear_9_5)"/>
<path d="M1493.87 648.528C1665.2 872.653 1498.15 949.666 1393.21 960.157L1393.21 965.999L1718 965.999L1718 2.09081e-05L1370.16 5.13175e-05C1345.92 4.13738 1259 94.7703 1259 198.499C1259 338.405 1279.7 368.371 1493.87 648.528Z" fill="url(#paint1_linear_9_5)"/>
<defs>
<linearGradient id="paint0_linear_9_5" x1="258.5" y1="722" x2="432.673" y2="-26.6001" gradientUnits="userSpaceOnUse">
<stop offset="0.00895846" stop-color="#F9F9F9"/>
<stop offset="1" stop-color="#E0E0E0" stop-opacity="0"/>
</linearGradient>
<linearGradient id="paint1_linear_9_5" x1="1459.78" y1="243.999" x2="1285.44" y2="992.516" gradientUnits="userSpaceOnUse">
<stop offset="0.00895846" stop-color="#F9F9F9"/>
<stop offset="1" stop-color="#E0E0E0" stop-opacity="0"/>
</linearGradient>
</defs>
</svg>
